<svg id="Layer_1" data-name="Layer 1" xmlns="http://www.w3.org/2000/svg" viewBox="0 0 300 300">
  <defs>
    <style>
      .cls-1 {
        fill: #fff;
      }
    </style>
  </defs>
  <title>awardArtboard 2</title>
  <g>
    <polygon class="cls-1" points="201.1 222.6 196.2 233.8 184.9 229.1 162.2 219.8 151.3 227.8 171.1 286.4 194.5 261 228.6 267 208.2 206.7 201.1 222.6"/>
    <polygon class="cls-1" points="142.4 234.3 132.5 241.5 125 231.8 110.1 212.4 89.9 214.6 72.1 267 106.2 261 129.6 286.4 148.9 229.6 142.4 234.3"/>
    <path class="cls-1" d="M236.7,108.4l12-29.2L219.8,66.4l-4.2-31.2-31.3,3.4L165,13.6,139.5,32.2l-29.2-12L97.6,49,66.3,53.2l3.4,31.4-25,19.3,18.6,25.4-12,29.2,28.9,12.7,4.2,31.3,31.3-3.4,19.3,25,25.5-18.6,29.1,12,12.8-28.8,31.3-4.2-3.4-31.4,25-19.3ZM150,193a74.2,74.2,0,1,1,74.1-74.1A74.2,74.2,0,0,1,150,193Z"/>
    <path class="cls-1" d="M150,57.3a61.6,61.6,0,1,0,61.5,61.6A61.6,61.6,0,0,0,150,57.3Z"/>
  </g>
</svg>
