<svg id="Layer_1" data-name="Layer 1" xmlns="http://www.w3.org/2000/svg" viewBox="0 0 300 300">
  <defs>
    <style>
      .cls-1 {
        fill: #472f0f;
      }

      .cls-2 {
        fill: #6c4826;
      }

      .cls-3 {
        fill: none;
        stroke: #2a2a2a;
        stroke-linecap: round;
        stroke-miterlimit: 10;
        stroke-width: 2px;
      }
    </style>
  </defs>
  <title>brown3Artboard 2</title>
  <g>
    <path class="cls-1" d="M105.4,139.8l-1.8.8-.7.4-.7.4a15.3,15.3,0,0,0-2.3,1.5,12.4,12.4,0,0,0-2.7,3.2,14.1,14.1,0,0,0-1.2,4.2c-.5,4.4-.9,11-1,15.3a114.7,114.7,0,0,0,.4,13.1c.5,4.3,2.1,11.9,2.1,11.9L85,215.7l-.6,1.2a5.2,5.2,0,0,0,0,4.7l13,25.4.3.5a2.5,2.5,0,0,0,2,1.5l5.8,1.1a3,3,0,0,0,3.4-2.4,2.9,2.9,0,0,0-2.2-3.3L101,243l2.2,2-4.5-24.2,15.9-24.3,1.2-4.2a68.5,68.5,0,0,0,3.2-13,114,114,0,0,0,1.1-13,112.8,112.8,0,0,0-.2-13c0-1.1-.1-2.2-.2-3.3a7.8,7.8,0,0,0-.7-3.3,10.3,10.3,0,0,0-2.5-3.3,14,14,0,0,0-2.2-1.7l-.7-.4-.7-.4-1.7-.9A7.3,7.3,0,0,0,105.4,139.8Z"/>
    <path class="cls-2" d="M64.4,219.8l.6-1.2,12.5-25.1s-1.6-7.6-2.1-11.9a115.4,115.4,0,0,1-.4-13.1c.1-4.3.5-10.9,1-15.3v-.4h0v-1.9c-12.7-2.3-1.2-22-1.2-22l6.3,7.7a6.4,6.4,0,0,1,2.8-1.6L167.1,103l9.8-40.1a10.3,10.3,0,0,1,.6-3.5l-3.6-2.6a3.5,3.5,0,0,1-1.2-2.3V29c0-.8.4-1,.9-.4s9,11.1,8.6,24.6a18.1,18.1,0,0,1,11-3.5,19.4,19.4,0,0,1,7.3,1.4c.5-12.5,8.5-22.5,8.5-22.5s.9-.4.9.4V54.5a3.1,3.1,0,0,1-1.2,2.3l-.8.6a10.4,10.4,0,0,1,1.6,5.5c0,12.1-4.2,13.4-10.2,13.3v50.3s1.8,18.8-4.1,33.6a6.9,6.9,0,0,1-.2,1.3c-.5,3.7-1.1,7.5-1.5,11.3-.9,7.7-1.5,15.4-2,23.2s-.9,15.6-1.1,23.4l-.4,11.8-.2,6c-.1,1.3-.1,2.6-.2,3.9l4.1.7a2.9,2.9,0,0,1-1.1,5.7l-6.5-1.2h0a2.8,2.8,0,0,1-2.3-2.5c-.6-2-1-3.9-1.5-5.9l-1.3-5.9c-.8-4-1.4-8-2-12-1.1-8-1.8-16.1-2.2-24.2-.2-6.2-.2-12.3,0-18.5l-3.2.6c-.8,6.9-1.3,13.9-1.8,21s-.8,15.6-1.1,23.4l-.4,11.8-.2,6c-.1,1.3-.1,2.6-.1,3.9l4,.7a2.9,2.9,0,0,1,2.3,3.4,2.8,2.8,0,0,1-3.3,2.3l-6.5-1.2h0a2.9,2.9,0,0,1-2.4-2.5l-1.5-5.9-1.2-5.9q-1.2-6-2.1-12c-1.1-8-1.8-16.1-2.1-24.2a208.3,208.3,0,0,1,.1-20.9c-17.9-2.2-37.2-9.9-45.9-12.5a22.6,22.6,0,0,0-11.2-.8c0,1.6,0,3.2-.1,4.8a114,114,0,0,1-1.1,13,67.6,67.6,0,0,1-3.2,12.9l-1.2,4.3L78.7,223.7l4.2,22.7,3.8.9a2.9,2.9,0,0,1,2.2,3.3,3,3,0,0,1-3.4,2.4l-5.8-1.1a2.8,2.8,0,0,1-2-1.5l-.3-.5-13-25.4A5.2,5.2,0,0,1,64.4,219.8Z"/>
    <path class="cls-2" d="M181.7,91.4a1.1,1.1,0,0,0,.8,1.6l26.1,5.2a1.8,1.8,0,0,0,2-1l7.5-15.7a2.2,2.2,0,0,0-.5-2.3L206.2,68.3a3.9,3.9,0,0,0-2.5-1h-9.6a2.7,2.7,0,0,0-2.1,1.3Z"/>
    <path d="M200.3,95.1h8.3l5.7-12.3c-2,0-3.7-1-3.7-2.2s1.8-2.3,3.9-2.3,3.9,1,3.9,2.3-1.2,1.9-2.8,2.2l-5.8,12.3h.5a.6.6,0,0,1,.5.6.5.5,0,0,1-.5.5h-10a.6.6,0,0,1-.6-.5A.6.6,0,0,1,200.3,95.1Z"/>
    <path class="cls-3" d="M183.6,61.5a4.2,4.2,0,1,0,8.4,0"/>
    <path class="cls-3" d="M198.5,61.5a4.2,4.2,0,0,0,8.4,0"/>
  </g>
</svg>
