<svg id="Layer_1" data-name="Layer 1" xmlns="http://www.w3.org/2000/svg" viewBox="0 0 300 300">
  <defs>
    <style>
      .cls-1 {
        fill: #352413;
      }

      .cls-2 {
        fill: #d3c5b4;
      }

      .cls-3 {
        fill: #6c4826;
      }

      .cls-4 {
        fill: #3c3c3a;
      }

      .cls-5 {
        fill: none;
        stroke: #20201f;
        stroke-linecap: round;
        stroke-miterlimit: 10;
        stroke-width: 3px;
      }
    </style>
  </defs>
  <title>brown2Artboard 2</title>
  <g>
    <path class="cls-1" d="M226.8,229.9H189.6a5.8,5.8,0,0,1,0-11.6h26.1l-4.7-6.8a5.7,5.7,0,0,1,1.5-8,5.8,5.8,0,0,1,8,1.4l11,15.9a5.7,5.7,0,0,1,.4,6A5.8,5.8,0,0,1,226.8,229.9Z"/>
    <path class="cls-2" d="M79.7,103.4c.2-7.1,9.4-7.1,6.2-15.9s-10.8-7.8-10.8-7.8v7.2H39.7L31,91.2s-2.7,1.3-2.9,2.5,1.6,3.4,1.6,3.4l9.6,9.6a15.6,15.6,0,0,0,2.9,2.8c1.1.4,4.9.2,4.9.2L65,108.2s6,1.4,6.9,17.9C86.9,124.7,79.5,110.2,79.7,103.4Z"/>
    <path class="cls-3" d="M256.7,175.5a50.4,50.4,0,0,0-6-11.8,2.6,2.6,0,0,0-2.5-1.1,2.5,2.5,0,0,0-2.2,3h0c.6,4.1,1.3,8.1,1.5,11.9a42.4,42.4,0,0,1-.4,10.8,17.1,17.1,0,0,1-3.7,7.9,8.3,8.3,0,0,1-2.2,2,30.5,30.5,0,0,0-4.1-4.9h0s-21.6-22.8-46.4-31.8-45.4-19.9-55.6-27.5c-6.3-4.7-15.4-10.1-21.9-34.2C106,73.6,98.7,67.2,98.7,67.2h0a28.4,28.4,0,0,0-19.8-7.6c-13.4,0-24.6,8.6-26.6,19.9L39.7,86.9H75.1V79.7s7.6-1,10.8,7.8-6,8.8-6.2,15.9,7.2,21.3-7.8,22.7a113.2,113.2,0,0,1-1.1,21.2s-4.8,32,30.1,51l1.4,21.4H98.2a5.8,5.8,0,1,0,0,11.6h10.3a5.9,5.9,0,0,0,5.7-5.4v-.4l.5-7.1.9,12.9-4.1-.3a5.8,5.8,0,1,0,0,11.6h10.2a5.8,5.8,0,0,0,5.8-5.4v-.4l1.9-28.5a191,191,0,0,0,34.2,3.6s30.8-3,44.7,8.4l1.9,1.7a27.5,27.5,0,0,0,10.5,5.6H208.2a5.8,5.8,0,1,0,0,11.6h37.2a5.8,5.8,0,0,0,5.1-3.1,5.9,5.9,0,0,0-.4-6l-6.9-10a18.4,18.4,0,0,0,2.2-8.4c.8-.5,1.6-.9,2.4-1.5a25.4,25.4,0,0,0,6.1-5.7,26.8,26.8,0,0,0,5.1-15A37.8,37.8,0,0,0,256.7,175.5Zm-22.9,52.1h0Z"/>
    <path class="cls-1" d="M103.6,69.3c-1.8-2.6-4.6-2.4-6,.4l-15,28.7a9.3,9.3,0,0,0,1,9.6l4.6,5.6a6,6,0,0,0,8.3.9l20.9-15.8a6.1,6.1,0,0,0,1.2-8.3Z"/>
    <path class="cls-4" d="M35.9,94.3c0,1.5-1.9,2.7-4.2,2.7s-4.2-1.2-4.2-2.7,1.9-2.8,4.2-2.8S35.9,92.7,35.9,94.3Z"/>
    <path class="cls-4" d="M41.9,108.9a.6.6,0,0,1-.6-.5.6.6,0,0,1,.5-.8C55,105.5,69.9,98,70.1,98a.5.5,0,0,1,.8.2.6.6,0,0,1-.3.9c-.1.1-15.2,7.7-28.6,9.8Z"/>
    <path class="cls-5" d="M61.9,77.6a5.9,5.9,0,0,1,5.9-6,6,6,0,0,1,6,6"/>
  </g>
</svg>
