<svg id="Layer_1" data-name="Layer 1" xmlns="http://www.w3.org/2000/svg" viewBox="0 0 300 300">
  <defs>
    <style>
      .cls-1 {
        fill: #472f0f;
      }

      .cls-2 {
        fill: #6c4826;
      }

      .cls-3 {
        fill: #7d542d;
      }

      .cls-4 {
        fill: #966637;
      }

      .cls-5 {
        fill: #20201f;
      }

      .cls-6, .cls-7 {
        fill: none;
        stroke-linecap: round;
        stroke-miterlimit: 10;
      }

      .cls-6 {
        stroke: #1d1d1c;
        stroke-width: 2px;
      }

      .cls-7 {
        stroke: #1a1a1a;
        stroke-width: 3px;
      }
    </style>
  </defs>
  <title>brown1Artboard 2</title>
  <g>
    <path class="cls-1" d="M67.8,177.3h.1a13.1,13.1,0,0,1,0-2.8,15.3,15.3,0,0,1,27.9-7.3l31.8-11.6s-.2,38-30.5,42.9c-.1,3.1-.2,6.2-.2,9.3-.1,5.1-.1,10.2.1,15.1a92.1,92.1,0,0,0,1.3,12.7l6.2,5.1a4,4,0,0,1,1.5,3.1,4.1,4.1,0,0,1-4,4.3l-15,.3a2.9,2.9,0,0,1-2.5-1.2l-3-4.1h0A96.2,96.2,0,0,1,76,226c-1.3-5.4-2.4-10.8-3.4-16.2s-1.8-10.7-2.6-16.1-1.1-8.3-1.6-12.5A22.8,22.8,0,0,1,67.8,177.3Z"/>
    <path class="cls-2" d="M23.1,94.7l.5-1,.4-.8a16.7,16.7,0,0,1,1.2-2.3,16.1,16.1,0,0,1,3.1-3.8,21.1,21.1,0,0,1,8-4.7,22.4,22.4,0,0,1,17.2,1.6,14,14,0,0,1,6,6.9,9.8,9.8,0,0,1,.6,2.3,4.3,4.3,0,0,1,.2,1.2v1a19.6,19.6,0,0,1-.4,4.1,11.9,11.9,0,0,1-4.4,7,12.3,12.3,0,0,1-7.3,2.2v-1.5a10,10,0,0,0,5.2-3.2,7.7,7.7,0,0,0,1.8-5.2,15.5,15.5,0,0,0-.4-2.9v-.7l-.2-.5-.6-1.1a7.2,7.2,0,0,0-3.7-2.6,13.1,13.1,0,0,0-10.1,1,11.1,11.1,0,0,0-3.5,2.9,16.2,16.2,0,0,0-1,1.8l-.3.9a12.1,12.1,0,0,0-.3,1.4,20.3,20.3,0,0,0,.4,10.7,25.2,25.2,0,0,0,1.6,4.4,22.5,22.5,0,0,0,1.9,3.3,20.2,20.2,0,0,0,8,5.6h0c6.6-8.8,16.7-14,32.1-11.2,0,0,13.6-11.2,26.6-.7,0,0,19.4-16.1,36.2-10.3s86.9,40.2,86.9,40.2,4.6,27.5-10.2,47.7c-.1,1.3-.1,2.7-.2,4-.3,5.1-.5,10.3-.5,15.4s-.1,10.2.1,15.1a92.1,92.1,0,0,0,1.3,12.7l6.2,5.1a4,4,0,0,1,1.5,3.1,4.1,4.1,0,0,1-4,4.3l-15,.3a2.9,2.9,0,0,1-2.5-1.2l-3-4.1h0a96.2,96.2,0,0,1-5.5-17.1c-1.3-5.4-2.4-10.8-3.4-16.2l-.6-3.8a81.4,81.4,0,0,1-21.3,3.3c-.1,2.1-.1,4.2-.2,6.3-.1,5.1,0,10.2.2,15.1a92.1,92.1,0,0,0,1.3,12.7l6.2,5.1a3.9,3.9,0,0,1,1.5,3.1,4,4,0,0,1-4,4.2l-15,.4A3,3,0,0,1,159,255l-3.1-4.2h0a101.2,101.2,0,0,1-5.5-17q-2-8.1-3.3-16.2c-.6-3.1-1.1-6.1-1.6-9.2-39.7-3.9-39.7-17.8-56.2-20.2-4.3,8.3-11.7,16-24.2,18.1q-.3,4.6-.3,9.3c-.1,5.1-.1,10.2.1,15.1a92.1,92.1,0,0,0,1.3,12.7l6.2,5.1a4.3,4.3,0,0,1,1.6,3.1,4.1,4.1,0,0,1-4.1,4.2l-14.9.4a3.2,3.2,0,0,1-2.6-1.2l-3-4.2h0c-2.8-6.1-4.1-11.5-5.5-17s-2.4-10.8-3.4-16.2-1.8-10.7-2.5-16.1-1.2-8.3-1.7-12.6a.4.4,0,0,0-.1-.3h-.1s-.1-1.3-.3-3.5h0c-.8-9-1.9-33.2,5.2-51.6a24.2,24.2,0,0,1-12.6-4.9,22,22,0,0,1-6.2-8,26.4,26.4,0,0,1-2.2-9A41.3,41.3,0,0,1,23.1,94.7Z"/>
    <path class="cls-3" d="M162.1,47h64.2c15.5,0,31.4,12.6,31.4,28.1l-5.5,59.5c0,10.3-8.8,19.4-17.1,24.3a62.6,62.6,0,0,0,1.3-12.3c0-27.6-18.9-50-42.2-50S152,119,152,146.6a62.6,62.6,0,0,0,1.3,12.3c-8.3-4.9-17.1-14-17.1-24.3l-5.4-59.5C130.8,59.6,146.6,47,162.1,47Z"/>
    <path class="cls-4" d="M194.2,96.6c23.3,0,42.2,22.4,42.2,50a62.6,62.6,0,0,1-1.3,12.3,28.4,28.4,0,0,1-14.2,3.8H167.5a28.4,28.4,0,0,1-14.2-3.8,62.6,62.6,0,0,1-1.3-12.3C152,119,170.9,96.6,194.2,96.6Z"/>
    <path class="cls-5" d="M182.7,101.1c0,3.4,5.1,6.1,11.5,6.1s11.5-2.7,11.5-6.1-5.1-6.2-11.5-6.2S182.7,97.7,182.7,101.1Z"/>
    <path class="cls-4" d="M216.3,75.5c-6.1,9.9-4,22.2,4.5,27.3s20.3,1.2,26.3-8.7"/>
    <path class="cls-4" d="M172.2,75.5c6,9.9,3.9,22.2-4.6,27.3s-20.3,1.2-26.3-8.7"/>
    <path class="cls-1" d="M235.2,44.3l43.3,26.6a3.3,3.3,0,0,1,1.2,4.2l-17,33.6a3.1,3.1,0,0,1-2.9,1.7h-.1a3.1,3.1,0,0,1-2.9-1.9L230.5,48.3a3.2,3.2,0,0,1,.9-3.7A3,3,0,0,1,235.2,44.3Z"/>
    <path class="cls-1" d="M110,70.9l43.2-26.6a3,3,0,0,1,3.8.3,3.1,3.1,0,0,1,.9,3.7l-26.3,60.2a3.1,3.1,0,0,1-2.9,1.9h-.1a3.2,3.2,0,0,1-2.9-1.7L108.8,75.1A3.1,3.1,0,0,1,110,70.9Z"/>
    <path class="cls-5" d="M197.1,147.8V101.1a2.9,2.9,0,0,0-5.8,0v46.7Z"/>
    <path class="cls-6" d="M238,91.8a9.6,9.6,0,1,1-19.2,0"/>
    <path class="cls-6" d="M169.3,91.8a9.6,9.6,0,0,1-19.2,0"/>
    <path class="cls-7" d="M173.7,140.6c1.7.2,19.5,7.2,19.5,7.2"/>
    <path class="cls-7" d="M214.7,140.6c-1.7.2-19.5,7.2-19.5,7.2"/>
  </g>
</svg>
