<svg id="Layer_1" data-name="Layer 1" xmlns="http://www.w3.org/2000/svg" viewBox="0 0 300 300">
  <defs>
    <style>
      .cls-1 {
        fill: #573a1b;
      }

      .cls-2 {
        fill: #472f0f;
      }

      .cls-3 {
        fill: #6c4826;
      }

      .cls-4 {
        fill: #659689;
      }

      .cls-5 {
        fill: #120000;
      }

      .cls-6 {
        fill: #352413;
      }

      .cls-7 {
        fill: none;
        stroke: #2a2a2a;
        stroke-linecap: round;
        stroke-miterlimit: 10;
        stroke-width: 2px;
      }
    </style>
  </defs>
  <title>brown4Artboard 2</title>
  <g>
    <g>
      <path class="cls-1" d="M48.6,139.1c5.5-4.5,16.8-2.8,22.9,0,3,1.4,4.4,3.9,2.4,6.1a6.5,6.5,0,0,1-4.2,2.1,4.9,4.9,0,0,1-1.2,1.3l-.6,1c-1.6,1.8-4.6,2.4-7.6,2s-9-1.6-11.6-3.8S45.3,141.9,48.6,139.1Z"/>
      <path class="cls-2" d="M201.6,167s-4.1,46.1.6,51.4-18.8,5.3-18.8,2.2V171.1Z"/>
      <path class="cls-2" d="M107.3,167s-4.1,46.3.6,51.6-18.8,5.1-18.8,1.9V171Z"/>
      <path class="cls-3" d="M55.5,168c1.5-8.8,5.2-18.1,11.6-24.5s16.7-9.5,27.2-9.8q20-.6,39.9-1.5h0c11.7-2.2,19.8-5.8,20.2-11.6,1.6-21.3,18.8-45.8,29.7-49.2s14.8-4.8,21.6,1.6c17.3,21.1,44.4,20,44.4,20s1.3,32.8-34.7,33c-7.1,46-24,60.2-26.3,65.7s-6.5,28.6-1.8,34.9-19.5,6.1-20.2.5-3.1-20-4-26c0-.3-19.9-2.8-21.4-3a189.3,189.3,0,0,1-33.3-7.7c-12.1-4-26.3-6.9-31.6,8.3-2.4,7-2.6,18.7,2.7,24.7s-21.3,4.7-21.9,0S54.1,175.8,55.5,168Z"/>
      <path class="cls-4" d="M193.8,143.8c3.8.4,14.2.2,20.3-.1s4.5-15.4.7-14.7a31.4,31.4,0,0,0-1.1,5c-34.5,1.7-55.3-22.9-57.2-25.9s-9.5,3.1-6.8,7.7S161.8,140.2,193.8,143.8Z"/>
      <path class="cls-5" d="M236.7,108.4a10.8,10.8,0,0,0,4.4,3.8.4.4,0,0,1,.1-.3c1.5-3.3,3.6-7.1,4-10.7-6.4-2-5.7-13.1,2.1-13.1s8.7,13,.3,13.3c-.5,4.1-2.7,8-4.3,11.7a.1.1,0,0,0-.1.1c.5.8-.1,2.3-1.3,1.9a13,13,0,0,1-7.3-5.5C233.7,108.4,235.8,107.1,236.7,108.4Z"/>
      <path class="cls-6" d="M195.5,74.8c-1-5.3-8.4-2.4-10.7-.6a98.8,98.8,0,0,0-12.3,11.9c-7.2,8-13.2,19.2-4.1,28.3s19.6,1.9,25.3-4.7C202.2,100,197.7,85.9,195.5,74.8Z"/>
    </g>
    <path class="cls-7" d="M218.2,92.2a5.7,5.7,0,0,1-11.3,0"/>
  </g>
</svg>
