<svg id="Layer_1" data-name="Layer 1" xmlns="http://www.w3.org/2000/svg" viewBox="0 0 300 300">
  <defs>
    <style>
      .cls-1, .cls-7 {
        fill: none;
      }

      .cls-2 {
        fill: #c02c2c;
      }

      .cls-3 {
        fill: #472f0f;
      }

      .cls-4 {
        fill: #6c4826;
      }

      .cls-5 {
        fill: #4d341a;
      }

      .cls-6 {
        fill: #271b10;
      }

      .cls-7 {
        stroke: #010002;
        stroke-linecap: round;
        stroke-miterlimit: 10;
        stroke-width: 2px;
      }
    </style>
  </defs>
  <title>brown5Artboard 2</title>
  <g>
    <path class="cls-1" d="M73.6,136.5a23,23,0,0,0,0,45.9,23.2,23.2,0,0,0,8.4-1.6l-.8-43A21.3,21.3,0,0,0,73.6,136.5Z"/>
    <path class="cls-1" d="M85.1,179.3l38.6,8c-6.2-5.7-16.3-10.7-25.3-10.7A34.7,34.7,0,0,0,85.1,179.3Z"/>
    <path class="cls-1" d="M85.1,179.3,82,180.8A17.7,17.7,0,0,0,85.1,179.3Z"/>
    <path class="cls-1" d="M181.1,162.1a34.2,34.2,0,0,0-34.3-34.3,33.7,33.7,0,0,0-16.1,4,30.3,30.3,0,0,0-4.8,3.1,34.4,34.4,0,0,0-13.4,27.2c0,9.1,5.3,19.1,11.2,25.2a33.8,33.8,0,0,0,21.5,9h3.1A34.2,34.2,0,0,0,181.1,162.1Z"/>
    <path class="cls-2" d="M146.8,196.3h0Z"/>
    <path class="cls-3" d="M185.4,237.4l-8.7-1.4a106,106,0,0,1-1.7-15.8,135.4,135.4,0,0,1,.6-18c.5-6.1,1.4-12.1,2.4-18s2.2-8.7,2.2-13.2h0c4.1-26.1,15.4-52.3,15.4-52.3l-42.7-9.8c-2.2,17-13.1,19.6-13.1,19.6h.1a50.1,50.1,0,0,0-9.2,3.2c-2.4,1.1-15.7,4.7-29.3,4.3l-27.8-.9a21.2,21.2,0,0,0-4.4.5,65.9,65.9,0,0,1-1.7-6.7l-1.7-7.9a27.9,27.9,0,0,1-.7-8.2,35.6,35.6,0,0,1,1.7-8.5A73,73,0,0,1,70.1,96,74.5,74.5,0,0,1,80.5,80.6l-.7-.9A58.9,58.9,0,0,0,65.3,93a49.5,49.5,0,0,0-5.5,8.5,40.5,40.5,0,0,0-3.7,9.7A48.7,48.7,0,0,0,54.4,122a24.4,24.4,0,0,0,2.2,10.7,31.1,31.1,0,0,0,4.2,6.8,25.3,25.3,0,0,0-10.1,19.3,18.4,18.4,0,0,0-.3,3.3l.2.3v.6l.3,1.2c.2.8.3,1.6.5,2.5s.5,3.5.6,5.2a63.7,63.7,0,0,1,0,10.7c-.6,7.1-2.5,14-6.8,20l-.3.2a5,5,0,0,0-1.3,5.1L52.9,238v.5a4.1,4.1,0,0,0,3.5,2.7l10.3.7a3.8,3.8,0,0,0,.9-7.5l-7.1-1.3-6.2-24.3a43.8,43.8,0,0,0,8.8-7.3,51.7,51.7,0,0,0,4.2-5.1,34.3,34.3,0,0,1-3.4,6.2l-.3.2a5,5,0,0,0-1.3,5.1L71.6,238l.2.5a3.9,3.9,0,0,0,3.4,2.7l10.3.7a3.8,3.8,0,0,0,.9-7.5l-7.1-1.3-6.2-24.3a43.8,43.8,0,0,0,8.8-7.3,66.5,66.5,0,0,0,8.7-11.8,78.9,78.9,0,0,0,6.3-13.1h3.5c9.5,1.1,19.3,6.7,23.3,10.6a34.1,34.1,0,0,0,10.4,6.6c-.1,2.6-.1,5.3,0,7.9a112.5,112.5,0,0,0,2.3,20,80,80,0,0,0,6.6,19.1l1,2.5,2.4.2,11.8.7a3.5,3.5,0,0,0,.8-6.9l-8.7-1.4a105.8,105.8,0,0,1-1.6-15.8,154.6,154.6,0,0,1,.5-18l.6-6a30.7,30.7,0,0,0,10.6-2.7c0,2.8,0,5.5.1,8.3a112.5,112.5,0,0,0,2.3,20,75.8,75.8,0,0,0,6.6,19.1l1,2.5,2.4.2,11.8.7a3.5,3.5,0,0,0,.8-6.9Z"/>
    <path class="cls-4" d="M210.3,93.1c6,34.8-16.9,53.8-31.7,56.4-12.7,2.2-40.4-9.8-46.5-44.9C128.5,84,145,64.4,165.7,61.4S206.7,72.5,210.3,93.1Z"/>
    <path class="cls-4" d="M199.6,73.3s52.7-28.3,57-13.2c0,0-13.3,59.6-47,46.9"/>
    <path class="cls-4" d="M136.2,84.3S77,75.4,78.1,91.2c0,0,32.6,51.5,60,28.2"/>
    <path class="cls-5" d="M184.6,103.1c1.9,10.7,8.9,18.4,15.6,17.2s10.8-10.8,8.9-21.4-8.8-18.4-15.6-17.2S182.8,92.5,184.6,103.1Z"/>
    <path class="cls-5" d="M136.1,110.7c1.8,10.6,8.8,18.3,15.6,17.1s10.7-10.7,8.9-21.4S151.8,88.1,145,89.2,134.2,100,136.1,110.7Z"/>
    <path class="cls-6" d="M192.2,135.7a.8.8,0,0,0-1.2-.2l-4,2.9-9.4.5a.2.2,0,0,0,0-.3l-.9-5.6h0c3.4-1.2,5.5-5.6,5-8.1s-4.1-4.3-8-3.6-6.6,3.5-6.1,6.2,3.8,5.9,7.4,5.8h0l1,5.6.2.3-8.5,2.5-4.8-1.3a.8.8,0,0,0-1,.6.9.9,0,0,0,.6,1l5,1.4h.5l9.2-2.8h.5l9.6-.6h.1l.3-.2,4.3-2.9A.8.8,0,0,0,192.2,135.7Z"/>
    <path class="cls-7" d="M141.6,114.3a8.1,8.1,0,1,1,15.7-3.7"/>
    <path class="cls-7" d="M189.1,105.4a8.1,8.1,0,0,1,15.8-3.8"/>
  </g>
</svg>
