<svg id="Layer_1" data-name="Layer 1" xmlns="http://www.w3.org/2000/svg" viewBox="0 0 300 300">
  <defs>
    <style>
      .cls-1 {
        fill: #415360;
      }

      .cls-2 {
        fill: none;
        stroke: #7dacbc;
        stroke-linecap: round;
        stroke-linejoin: round;
        stroke-width: 3.5px;
      }

      .cls-3 {
        fill: #7dacbc;
      }

      .cls-4 {
        fill: #40b8a8;
      }

      .cls-5 {
        fill: #b0deea;
      }
    </style>
  </defs>
  <title>patternArtboard 2</title>
  <g>
    <rect class="cls-1" x="-1" y="-3" width="301" height="304"/>
    <g>
      <g>
        <g id="hueso">
          <path class="cls-2" d="M74.6,256.6a6.9,6.9,0,0,0,3.8-6.6,4.9,4.9,0,0,0-4.4-5.2c-3.8-1-6.5,2-9.3,4.6a14.7,14.7,0,0,1-7.8,3.8c-3.8.8-7.6,1.3-11.4,1.9l-5,.7c-3.1.5-6.4.9-9.5,0s-5.5-4.4-9.1-3.1c-5.3,1.7-4.8,9,.1,10.5"/>
          <path class="cls-2" d="M23.5,262.4a7.7,7.7,0,0,0-3.3,3.1c-1.5,4,.6,7.4,3.9,9s6.5-2.5,9.3-5.1a11.4,11.4,0,0,1,5.7-3.1l3.9-.6L54.3,264l7.2-1.1a14.6,14.6,0,0,1,3-.2,13.7,13.7,0,0,1,6.4,2.5c1.7,1.1,3.6,1.9,5.7,1.2,5.2-2,4.4-9.4-.7-10.6"/>
        </g>
        <polygon class="cls-3" points="21.8 263.3 20.2 262.4 18.8 260.7 17.9 258.6 18.2 256.6 18.9 254.9 20 253.6 21.7 252.7 23.7 252.4 26.2 253.1 28.7 254.7 31 255.7 33.1 256.2 35.7 256.3 38.4 256.1 55.5 253.4 58.7 252.7 61.7 251.5 64.4 249.5 66.7 247.3 68.5 245.9 71 244.7 73.9 244.7 76.2 245.5 78.1 247.6 78.2 250.6 77.7 253.1 76.8 254.8 75.8 255.7 77.6 256.5 79 257.8 79.8 259.7 79.9 262.4 78.6 265.1 75.4 266.7 72 265.8 69.3 264.2 66.5 263 63.6 262.6 59.9 263.2 40.7 266 36.9 266.9 34.2 268.6 31.5 271.1 29.1 273.4 26.7 274.7 23.8 274.3 21.8 272.9 20.3 270.8 19.6 268.8 19.9 266.4 20.9 264.3 21.8 263.3"/>
      </g>
      <g>
        <g id="hueso-2" data-name="hueso">
          <path class="cls-2" d="M74.6,155.6a6.9,6.9,0,0,0,3.8-6.6,4.9,4.9,0,0,0-4.4-5.2c-3.8-1-6.5,2-9.3,4.6a14.7,14.7,0,0,1-7.8,3.8c-3.8.8-7.6,1.3-11.4,1.9l-5,.7c-3.1.5-6.4.9-9.5,0s-5.5-4.4-9.1-3.1c-5.3,1.7-4.8,9,.1,10.5"/>
          <path class="cls-2" d="M23.5,161.4a7.7,7.7,0,0,0-3.3,3.1c-1.5,4,.6,7.4,3.9,9s6.5-2.5,9.3-5.1a11.4,11.4,0,0,1,5.7-3.1l3.9-.6L54.3,163l7.2-1.1a14.6,14.6,0,0,1,3-.2,13.7,13.7,0,0,1,6.4,2.5c1.7,1.1,3.6,1.9,5.7,1.2,5.2-2,4.4-9.4-.7-10.6"/>
        </g>
        <polygon class="cls-3" points="21.8 162.3 20.2 161.3 18.8 159.7 17.9 157.6 18.2 155.6 18.9 153.9 20 152.6 21.7 151.7 23.7 151.4 26.2 152.1 28.7 153.7 31 154.7 33.1 155.2 35.7 155.3 38.4 155.1 55.5 152.4 58.7 151.7 61.7 150.5 64.4 148.5 66.7 146.3 68.5 144.9 71 143.7 73.9 143.7 76.2 144.5 78.1 146.6 78.2 149.6 77.7 152.1 76.8 153.8 75.8 154.7 77.6 155.5 79 156.8 79.8 158.7 79.9 161.4 78.6 164.1 75.4 165.7 72 164.8 69.3 163.2 66.5 162 63.6 161.6 59.9 162.2 40.7 165 36.9 165.9 34.2 167.6 31.5 170.1 29.1 172.4 26.7 173.7 23.8 173.3 21.8 171.9 20.3 169.8 19.6 167.8 19.9 165.3 20.9 163.3 21.8 162.3"/>
      </g>
      <g>
        <g id="hueso-3" data-name="hueso">
          <path class="cls-2" d="M74.6,54.6A6.9,6.9,0,0,0,78.4,48,4.9,4.9,0,0,0,74,42.8c-3.8-1-6.5,2-9.3,4.6a14.7,14.7,0,0,1-7.8,3.8c-3.8.8-7.6,1.3-11.4,1.9l-5,.7c-3.1.5-6.4.9-9.5,0s-5.5-4.4-9.1-3.1c-5.3,1.7-4.8,9,.1,10.5"/>
          <path class="cls-2" d="M23.5,60.4a7.7,7.7,0,0,0-3.3,3.1c-1.5,4,.6,7.4,3.9,9s6.5-2.5,9.3-5.1a11.4,11.4,0,0,1,5.7-3.1l3.9-.6L54.3,62l7.2-1.1a14.6,14.6,0,0,1,3-.2,13.7,13.7,0,0,1,6.4,2.5c1.7,1.1,3.6,1.9,5.7,1.2,5.2-2,4.4-9.4-.7-10.6"/>
        </g>
        <polygon class="cls-3" points="21.8 61.3 20.2 60.4 18.8 58.7 17.9 56.6 18.2 54.6 18.9 52.9 20 51.6 21.7 50.7 23.7 50.4 26.2 51.1 28.7 52.7 31 53.7 33.1 54.2 35.7 54.3 38.4 54.1 55.5 51.4 58.7 50.7 61.7 49.5 64.4 47.5 66.7 45.3 68.5 43.9 71 42.7 73.9 42.7 76.2 43.5 78.1 45.6 78.2 48.6 77.7 51.1 76.8 52.8 75.8 53.7 77.6 54.5 79 55.8 79.8 57.7 79.9 60.4 78.6 63.1 75.4 64.7 72 63.8 69.3 62.2 66.5 61 63.6 60.6 59.9 61.2 40.7 64 36.9 64.9 34.2 66.6 31.5 69.1 29.1 71.4 26.7 72.7 23.8 72.3 21.8 70.9 20.3 68.8 19.6 66.8 19.9 64.3 20.9 62.3 21.8 61.3"/>
      </g>
    </g>
    <g>
      <g>
        <g id="hueso-4" data-name="hueso">
          <path class="cls-2" d="M133.7,223.7a7.1,7.1,0,0,0-7.7-.7,4.8,4.8,0,0,0-2.8,6.1c.6,3.9,4.5,5.2,8,6.6a14.6,14.6,0,0,1,6.7,5.6c2.2,3.1,4.3,6.3,6.4,9.5l2.7,4.3c1.8,2.6,3.5,5.5,3.9,8.6s-1.7,6.9.9,9.7,10.2.6,9.6-4.5"/>
          <path class="cls-2" d="M160,267.9a7.4,7.4,0,0,0,4.2,1.6c4.3-.2,6.5-3.5,6.6-7.2s-5-4.8-8.5-6.3c-1.9-.9-4.1-2.2-5.2-3.9s-1.4-2.3-2.2-3.4l-6.1-9.5-4-6.2a10.8,10.8,0,0,1-1.4-2.6,14.2,14.2,0,0,1-.4-6.8c.3-2.1.3-4.1-1.3-5.7-3.9-4-10.3-.2-9.3,5"/>
        </g>
        <polygon class="cls-3" points="161.5 269.1 161.3 270.9 160.4 272.9 158.9 274.5 156.9 275.1 155.1 275.2 153.5 274.7 151.9 273.5 150.8 271.8 150.5 269.2 150.8 266.3 150.9 263.8 150.4 261.7 149.4 259.3 148.1 257 138.6 242.4 136.6 239.8 134.3 237.6 131.4 236 128.5 234.7 126.4 233.6 124.3 231.9 123.1 229.2 122.8 226.9 124 224.2 126.7 222.9 129.1 222.3 131.1 222.5 132.3 223 132.3 221 132.9 219.2 134.3 217.7 136.8 216.5 139.7 216.6 142.5 218.8 143.1 222.3 142.8 225.4 142.8 228.5 143.7 231.2 145.7 234.4 156.3 250.7 158.5 253.8 161.2 255.6 164.7 257 167.7 258.2 169.9 259.9 170.7 262.7 170.3 265.1 169 267.3 167.5 268.8 165.1 269.5 162.8 269.4 161.5 269.1"/>
      </g>
      <g>
        <g id="hueso-5" data-name="hueso">
          <path class="cls-2" d="M133.7,122.7a7.1,7.1,0,0,0-7.7-.7,4.8,4.8,0,0,0-2.8,6.1c.6,3.9,4.5,5.2,8,6.6a14.6,14.6,0,0,1,6.7,5.6c2.2,3.1,4.3,6.3,6.4,9.5l2.7,4.3c1.8,2.6,3.5,5.5,3.9,8.6s-1.7,6.9.9,9.7,10.2.6,9.6-4.5"/>
          <path class="cls-2" d="M160,166.9a7.4,7.4,0,0,0,4.2,1.6c4.3-.2,6.5-3.5,6.6-7.2s-5-4.8-8.5-6.3c-1.9-.9-4.1-2.2-5.2-3.9s-1.4-2.3-2.2-3.4l-6.1-9.5-4-6.2a10.8,10.8,0,0,1-1.4-2.6,14.2,14.2,0,0,1-.4-6.8c.3-2.1.3-4.1-1.3-5.7-3.9-4-10.3-.2-9.3,5"/>
        </g>
        <polygon class="cls-3" points="161.5 168.1 161.3 169.9 160.4 171.9 158.9 173.5 156.9 174.1 155.1 174.2 153.5 173.7 151.9 172.5 150.8 170.8 150.5 168.2 150.8 165.3 150.9 162.8 150.4 160.7 149.4 158.3 148.1 156 138.6 141.4 136.6 138.8 134.3 136.6 131.4 135 128.5 133.7 126.4 132.6 124.3 130.9 123.1 128.2 122.8 125.9 124 123.2 126.7 121.9 129.1 121.3 131.1 121.5 132.3 122 132.3 120 132.9 118.2 134.3 116.7 136.8 115.5 139.7 115.6 142.5 117.8 143.1 121.3 142.8 124.4 142.8 127.5 143.7 130.2 145.7 133.4 156.3 149.7 158.5 152.8 161.2 154.6 164.7 156 167.7 157.2 169.9 158.9 170.7 161.7 170.3 164.1 169 166.3 167.5 167.8 165.1 168.5 162.8 168.4 161.5 168.1"/>
      </g>
      <g>
        <g id="hueso-6" data-name="hueso">
          <path class="cls-2" d="M133.7,21.7A7.1,7.1,0,0,0,126,21a4.8,4.8,0,0,0-2.8,6.1c.6,3.9,4.5,5.2,8,6.6a14.6,14.6,0,0,1,6.7,5.6c2.2,3.1,4.3,6.3,6.4,9.5l2.7,4.3c1.8,2.6,3.5,5.5,3.9,8.6s-1.7,6.9.9,9.7,10.2.6,9.6-4.5"/>
          <path class="cls-2" d="M160,65.9a7.4,7.4,0,0,0,4.2,1.6c4.3-.2,6.5-3.5,6.6-7.2s-5-4.8-8.5-6.3c-1.9-.9-4.1-2.2-5.2-3.9s-1.4-2.3-2.2-3.4l-6.1-9.5-4-6.2a10.8,10.8,0,0,1-1.4-2.6,14.2,14.2,0,0,1-.4-6.8c.3-2.1.3-4.1-1.3-5.7-3.9-4-10.3-.2-9.3,5"/>
        </g>
        <polygon class="cls-3" points="161.5 67.1 161.3 68.9 160.4 70.9 158.9 72.5 156.9 73.1 155.1 73.2 153.5 72.7 151.9 71.5 150.8 69.8 150.5 67.2 150.8 64.3 150.9 61.8 150.4 59.7 149.4 57.3 148.1 55 138.6 40.4 136.6 37.8 134.3 35.6 131.4 34 128.5 32.7 126.4 31.6 124.3 29.9 123.1 27.2 122.8 24.9 124 22.2 126.7 20.9 129.1 20.3 131.1 20.5 132.3 21 132.3 19 132.9 17.2 134.3 15.7 136.8 14.5 139.7 14.6 142.5 16.8 143.1 20.3 142.8 23.4 142.8 26.5 143.7 29.2 145.7 32.4 156.3 48.7 158.5 51.8 161.2 53.6 164.7 55 167.7 56.2 169.9 57.9 170.7 60.7 170.3 63.1 169 65.3 167.5 66.8 165.1 67.5 162.8 67.4 161.5 67.1"/>
      </g>
    </g>
    <g>
      <g>
        <g id="hueso-7" data-name="hueso">
          <path class="cls-2" d="M221.8,230.5a7.2,7.2,0,0,0-6.8,3.6,4.9,4.9,0,0,0,1,6.7c2.7,2.9,6.6,1.8,10.3,1.1a16.1,16.1,0,0,1,8.7.9l10.6,4.5c1.5.7,3,1.5,4.6,2.1s5.9,2.7,8,5.1,2.3,6.6,6,7.5c5.4,1.4,8.9-5,5.6-8.9"/>
          <path class="cls-2" d="M268.1,253a7.8,7.8,0,0,0,4.4-1c3.4-2.5,3.5-6.5,1.5-9.6s-6.8-1.3-10.6-.7a11.1,11.1,0,0,1-6.5-.4l-3.6-1.6-10.4-4.6-6.7-2.9a13,13,0,0,1-2.6-1.4,13.7,13.7,0,0,1-4.1-5.5c-.9-1.9-2-3.6-4.2-4.1-5.4-1.1-8.7,5.5-5.1,9.3"/>
        </g>
        <polygon class="cls-3" points="270 253.1 270.8 254.8 271.1 256.9 270.7 259.1 269.5 260.7 267.9 261.8 266.3 262.2 264.4 262.1 262.5 261.3 260.8 259.3 259.5 256.7 258.2 254.6 256.6 253.1 254.5 251.6 252.1 250.4 236.2 243.4 233.1 242.3 229.9 241.8 226.6 242 223.5 242.6 221.2 242.8 218.5 242.5 216 240.9 214.5 239.1 214 236.2 215.5 233.7 217.2 231.8 219 230.9 220.2 230.6 219.2 229 218.7 227.2 219 225.1 220.4 222.7 222.9 221.2 226.5 221.5 228.9 224.1 230.3 227 232.1 229.5 234.3 231.3 237.7 232.8 255.5 240.7 259.1 242 262.3 242 265.9 241.3 269.2 240.6 271.9 240.9 274.2 242.7 275.1 245 275.3 247.5 274.8 249.6 273.2 251.5 271.2 252.7 270 253.1"/>
      </g>
      <g>
        <g id="hueso-8" data-name="hueso">
          <path class="cls-2" d="M221.8,129.5a7.2,7.2,0,0,0-6.8,3.6,4.9,4.9,0,0,0,1,6.7c2.7,2.9,6.6,1.8,10.3,1.1a16.1,16.1,0,0,1,8.7.9l10.6,4.5c1.5.7,3,1.5,4.6,2.1s5.9,2.7,8,5.1,2.3,6.6,6,7.5c5.4,1.4,8.9-5,5.6-8.9"/>
          <path class="cls-2" d="M268.1,152a7.8,7.8,0,0,0,4.4-1c3.4-2.5,3.5-6.5,1.5-9.6s-6.8-1.3-10.6-.7a11.1,11.1,0,0,1-6.5-.4l-3.6-1.6-10.4-4.6-6.7-2.9a13,13,0,0,1-2.6-1.4,13.7,13.7,0,0,1-4.1-5.5c-.9-1.9-2-3.6-4.2-4.1-5.4-1.1-8.7,5.5-5.1,9.3"/>
        </g>
        <polygon class="cls-3" points="270 152.1 270.8 153.8 271.1 155.9 270.7 158.1 269.5 159.7 267.9 160.8 266.3 161.2 264.4 161.1 262.5 160.3 260.8 158.3 259.5 155.7 258.2 153.6 256.6 152.1 254.5 150.6 252.1 149.4 236.2 142.4 233.1 141.3 229.9 140.8 226.6 141 223.5 141.6 221.2 141.8 218.5 141.5 216 139.9 214.5 138.1 214 135.2 215.5 132.7 217.2 130.8 219 129.9 220.2 129.6 219.2 128 218.7 126.2 219 124.1 220.4 121.7 222.9 120.2 226.5 120.5 228.9 123.1 230.3 126 232.1 128.5 234.3 130.3 237.7 131.8 255.5 139.7 259.1 141 262.3 141 265.9 140.3 269.2 139.6 271.9 139.9 274.2 141.7 275.1 144 275.3 146.5 274.8 148.6 273.2 150.5 271.2 151.7 270 152.1"/>
      </g>
      <g>
        <g id="hueso-9" data-name="hueso">
          <path class="cls-2" d="M221.8,28.5a7.2,7.2,0,0,0-6.8,3.6,4.9,4.9,0,0,0,1,6.7c2.7,2.9,6.6,1.8,10.3,1.1a16.1,16.1,0,0,1,8.7.9l10.6,4.5c1.5.7,3,1.5,4.6,2.1s5.9,2.7,8,5.1,2.3,6.6,6,7.5c5.4,1.4,8.9-5,5.6-8.9"/>
          <path class="cls-2" d="M268.1,51a7.8,7.8,0,0,0,4.4-1c3.4-2.5,3.5-6.5,1.5-9.6s-6.8-1.3-10.6-.7a11.1,11.1,0,0,1-6.5-.4l-3.6-1.6-10.4-4.6-6.7-2.9a13,13,0,0,1-2.6-1.4,13.7,13.7,0,0,1-4.1-5.5c-.9-1.9-2-3.6-4.2-4.1-5.4-1.1-8.7,5.5-5.1,9.3"/>
        </g>
        <polygon class="cls-3" points="270 51.1 270.8 52.8 271.1 54.9 270.7 57.1 269.5 58.7 267.9 59.8 266.3 60.2 264.4 60.1 262.5 59.3 260.8 57.3 259.5 54.7 258.2 52.6 256.6 51.1 254.5 49.6 252.1 48.4 236.2 41.4 233.1 40.3 229.9 39.8 226.6 40 223.5 40.5 221.2 40.8 218.5 40.5 216 38.9 214.5 37.1 214 34.2 215.5 31.7 217.2 29.8 219 28.9 220.2 28.6 219.2 27 218.7 25.2 219 23.1 220.4 20.7 222.9 19.2 226.5 19.5 228.9 22.1 230.3 25 232.1 27.5 234.3 29.3 237.7 30.8 255.5 38.7 259.1 40 262.3 40 265.9 39.3 269.2 38.6 271.9 38.9 274.2 40.7 275.1 43 275.3 45.5 274.8 47.6 273.2 49.5 271.2 50.7 270 51.1"/>
      </g>
    </g>
    <g id="huellas">
      <g>
        <path class="cls-4" d="M93.7,195.9a8.3,8.3,0,0,1,1.3-3.4c3.4-5.4,10.5-5.3,14.2-.4a9.4,9.4,0,0,1,1.9,4.6,6.4,6.4,0,0,1-1.4,4.7,2.8,2.8,0,0,1-3.9.4,4.4,4.4,0,0,1-1.2-1.5,3.8,3.8,0,0,0-1.3-1.5h-.9a2.3,2.3,0,0,0-2.2,1.4c-.4.7-.7,1.5-1.5,1.8a2.9,2.9,0,0,1-1.6.1C94.2,201.2,93.4,198.6,93.7,195.9Z"/>
        <g>
          <g>
            <path class="cls-4" d="M97.7,182c-2.4.9-2.9,4.4-.4,5.4a2.9,2.9,0,0,0,3.7-4A2.8,2.8,0,0,0,97.7,182Z"/>
            <path class="cls-4" d="M105.3,182c-2.4.9-2.9,4.4-.4,5.4a2.9,2.9,0,0,0,3.7-4A2.8,2.8,0,0,0,105.3,182Z"/>
          </g>
          <path class="cls-4" d="M111.6,186.9a2.7,2.7,0,0,0-1.1,4.5,2.8,2.8,0,0,0,4-.3C116.1,189,114,186.4,111.6,186.9Z"/>
          <path class="cls-4" d="M91.6,186.9a2.7,2.7,0,0,0-1.1,4.5,2.8,2.8,0,0,0,4-.3C96.2,189,94,186.4,91.6,186.9Z"/>
        </g>
      </g>
      <g>
        <path class="cls-4" d="M7.8,226.1a8.6,8.6,0,0,1,2.1-2.9c4.7-4.4,11.6-2.3,13.8,3.4a9,9,0,0,1,.6,4.9,5.8,5.8,0,0,1-2.6,4.1,2.6,2.6,0,0,1-3.8-.6,4.2,4.2,0,0,1-.8-1.8,2.8,2.8,0,0,0-.9-1.7l-.8-.4a2.6,2.6,0,0,0-2.5.7,3.3,3.3,0,0,1-1.9,1.4,2.9,2.9,0,0,1-1.6-.4C6.9,231.3,6.8,228.5,7.8,226.1Z"/>
        <g>
          <g>
            <path class="cls-4" d="M15.4,213.7c-2.6.2-4,3.5-1.8,5.2a3,3,0,0,0,3.3.1,2.9,2.9,0,0,0,1.3-3A3,3,0,0,0,15.4,213.7Z"/>
            <path class="cls-4" d="M22.7,215.8c-2.6.2-4,3.4-1.8,5.1a3,3,0,0,0,3.3.2,3,3,0,0,0,1.3-3A2.9,2.9,0,0,0,22.7,215.8Z"/>
          </g>
          <path class="cls-4" d="M27.4,222.2a2.7,2.7,0,0,0-2.3,4,2.9,2.9,0,0,0,4,.8C31.3,225.4,29.9,222.4,27.4,222.2Z"/>
          <path class="cls-4" d="M8.2,216.9c-2-.2-3.3,2.3-2.3,4a3,3,0,0,0,4,.8C12.1,220.1,10.7,217,8.2,216.9Z"/>
        </g>
      </g>
      <g>
        <path class="cls-4" d="M274.5,123.2a8.3,8.3,0,0,1,1.3-3.4c3.3-5.4,10.5-5.3,14.2-.4a9.3,9.3,0,0,1,1.8,4.6,6,6,0,0,1-1.3,4.7,2.8,2.8,0,0,1-3.9.4,6.1,6.1,0,0,1-1.3-1.5,3,3,0,0,0-1.2-1.5h-.9a2.4,2.4,0,0,0-2.2,1.3,4,4,0,0,1-1.5,1.9,2.2,2.2,0,0,1-1.6,0C275,128.5,274.2,125.8,274.5,123.2Z"/>
        <g>
          <g>
            <path class="cls-4" d="M278.5,109.3c-2.4.8-2.9,4.4-.4,5.4a2.9,2.9,0,0,0,3.7-4A2.8,2.8,0,0,0,278.5,109.3Z"/>
            <path class="cls-4" d="M286.1,109.3c-2.4.8-2.9,4.4-.4,5.4a2.9,2.9,0,0,0,3.7-4A2.8,2.8,0,0,0,286.1,109.3Z"/>
          </g>
          <path class="cls-4" d="M292.4,114.2a2.6,2.6,0,0,0-1.1,4.5,2.8,2.8,0,0,0,4-.3A2.7,2.7,0,0,0,292.4,114.2Z"/>
          <path class="cls-4" d="M272.4,114.2a2.6,2.6,0,0,0-1.1,4.5,2.8,2.8,0,0,0,4-.3C277,116.2,274.8,113.7,272.4,114.2Z"/>
        </g>
      </g>
      <g>
        <path class="cls-4" d="M157.9,125a10.3,10.3,0,0,1,2.4-2.7c5.2-3.7,11.8-.9,13.3,5.1a9.1,9.1,0,0,1,0,4.9,5.9,5.9,0,0,1-3,3.8,2.8,2.8,0,0,1-3.8-1,7,7,0,0,1-.6-1.9,3.1,3.1,0,0,0-.6-1.9,2,2,0,0,0-.8-.4,2.3,2.3,0,0,0-2.5.4,3.6,3.6,0,0,1-2.1,1.1,2,2,0,0,1-1.5-.6C156.3,130.1,156.5,127.3,157.9,125Z"/>
        <g>
          <g>
            <path class="cls-4" d="M166.9,113.6c-2.6-.1-4.4,3-2.4,4.9a2.9,2.9,0,0,0,3.2.6,2.9,2.9,0,0,0-.8-5.5Z"/>
            <path class="cls-4" d="M173.9,116.5c-2.6-.1-4.4,3-2.4,4.9a2.9,2.9,0,0,0,3.2.6,2.9,2.9,0,0,0-.8-5.5Z"/>
          </g>
          <path class="cls-4" d="M177.8,123.5a2.6,2.6,0,0,0-2.7,3.7,2.7,2.7,0,0,0,3.8,1.2C181.3,127.1,180.3,123.9,177.8,123.5Z"/>
          <path class="cls-4" d="M159.4,115.9a2.7,2.7,0,0,0-2.8,3.7,2.8,2.8,0,0,0,3.9,1.2C162.8,119.5,161.8,116.3,159.4,115.9Z"/>
        </g>
      </g>
      <g>
        <path class="cls-4" d="M219.8,195.8a8.9,8.9,0,0,1-.2-3.6c1.1-6.4,7.7-9,13-5.8a9.5,9.5,0,0,1,3.5,3.4,6.1,6.1,0,0,1,.5,4.9,2.9,2.9,0,0,1-3.4,1.9,6.1,6.1,0,0,1-1.8-.9,2.4,2.4,0,0,0-1.7-.9l-.9.2a2.5,2.5,0,0,0-1.5,2.1,3.2,3.2,0,0,1-.7,2.3,2.6,2.6,0,0,1-1.5.7C222.3,200.5,220.4,198.3,219.8,195.8Z"/>
        <g>
          <g>
            <path class="cls-4" d="M218.1,181.4c-1.9,1.7-1,5.1,1.7,5.1a2.9,2.9,0,0,0,2.7-1.9,3,3,0,0,0-.8-3.2A2.9,2.9,0,0,0,218.1,181.4Z"/>
            <path class="cls-4" d="M225.1,178.5a2.8,2.8,0,1,0,4.4,3.2,3,3,0,0,0-.8-3.2A2.9,2.9,0,0,0,225.1,178.5Z"/>
          </g>
          <path class="cls-4" d="M232.8,180.6a2.7,2.7,0,0,0,.7,4.6,2.9,2.9,0,0,0,3.6-1.8C237.8,180.8,234.8,179.2,232.8,180.6Z"/>
          <path class="cls-4" d="M214.4,188.2a2.7,2.7,0,0,0,.7,4.6,2.8,2.8,0,0,0,3.5-1.8C219.4,188.4,216.4,186.8,214.4,188.2Z"/>
        </g>
      </g>
      <g>
        <path class="cls-4" d="M99.8,84.3a10.9,10.9,0,0,1,0-3.6c1.5-6.2,8.2-8.5,13.4-5a8.6,8.6,0,0,1,3.2,3.6,6.5,6.5,0,0,1,.3,4.9,2.9,2.9,0,0,1-3.6,1.7,4.4,4.4,0,0,1-1.6-1,3,3,0,0,0-1.7-1l-.9.2a2.5,2.5,0,0,0-1.6,2,3.1,3.1,0,0,1-.9,2.2,2,2,0,0,1-1.5.6C102,89.2,100.3,86.9,99.8,84.3Z"/>
        <g>
          <g>
            <path class="cls-4" d="M98.9,69.9c-1.9,1.6-1.2,5,1.5,5.2a3.2,3.2,0,0,0,2.8-1.7,3.1,3.1,0,0,0-.6-3.3A2.9,2.9,0,0,0,98.9,69.9Z"/>
            <path class="cls-4" d="M106.1,67.4c-1.9,1.6-1.3,5,1.5,5.2a3.3,3.3,0,0,0,2.8-1.7,3.1,3.1,0,0,0-.7-3.3A2.7,2.7,0,0,0,106.1,67.4Z"/>
          </g>
          <path class="cls-4" d="M113.7,69.9a2.6,2.6,0,0,0,.4,4.6,2.7,2.7,0,0,0,3.7-1.6C118.7,70.4,115.8,68.6,113.7,69.9Z"/>
          <path class="cls-4" d="M94.8,76.5a2.7,2.7,0,0,0,.5,4.6,2.8,2.8,0,0,0,3.6-1.6C99.8,76.9,97,75.2,94.8,76.5Z"/>
        </g>
      </g>
      <g>
        <path class="cls-4" d="M27.8,106.8a10.3,10.3,0,0,1,2.1-2.9c4.8-4.3,11.6-2.1,13.8,3.6a9,9,0,0,1,.5,4.9,6.2,6.2,0,0,1-2.6,4.1,2.9,2.9,0,0,1-3.9-.6,6.7,6.7,0,0,1-.7-1.8c-.2-.7-.3-1.4-.9-1.8a2,2,0,0,0-.8-.4,2.6,2.6,0,0,0-2.5.7,3.1,3.1,0,0,1-1.9,1.3,2.3,2.3,0,0,1-1.6-.4C26.8,112,26.7,109.2,27.8,106.8Z"/>
        <g>
          <g>
            <path class="cls-4" d="M35.5,94.5c-2.5.2-4,3.4-1.8,5.2a2.9,2.9,0,0,0,3.2.2,3.1,3.1,0,0,0,1.4-3A3,3,0,0,0,35.5,94.5Z"/>
            <path class="cls-4" d="M42.8,96.7c-2.5.2-4,3.4-1.8,5.1a2.9,2.9,0,0,0,3.2.2,3.1,3.1,0,0,0,1.4-3A2.9,2.9,0,0,0,42.8,96.7Z"/>
          </g>
          <path class="cls-4" d="M47.5,103.2a2.7,2.7,0,0,0-2.4,4,2.9,2.9,0,0,0,4,.8C51.3,106.4,49.9,103.3,47.5,103.2Z"/>
          <path class="cls-4" d="M28.3,97.6a2.6,2.6,0,0,0-2.3,4,2.8,2.8,0,0,0,3.9.8A2.7,2.7,0,0,0,28.3,97.6Z"/>
        </g>
      </g>
      <g>
        <path class="cls-4" d="M54,14.8a8.6,8.6,0,0,1,2.1-2.9c4.8-4.2,11.6-2.1,13.8,3.7a9.7,9.7,0,0,1,.5,4.8,6.4,6.4,0,0,1-2.6,4.2,2.9,2.9,0,0,1-3.9-.7,4.2,4.2,0,0,1-.8-1.8,2.5,2.5,0,0,0-.8-1.8,2,2,0,0,0-.8-.4,2.5,2.5,0,0,0-2.5.7A3.8,3.8,0,0,1,57.1,22a4.2,4.2,0,0,1-1.6-.4C53,20.1,52.9,17.3,54,14.8Z"/>
        <g>
          <g>
            <path class="cls-4" d="M61.7,2.6c-2.6.2-4,3.4-1.9,5.1a3,3,0,0,0,3.3.2,2.8,2.8,0,0,0,1.3-3A2.7,2.7,0,0,0,61.7,2.6Z"/>
            <path class="cls-4" d="M69,4.7c-2.6.2-4,3.4-1.9,5.1a3,3,0,0,0,3.3.2,2.8,2.8,0,0,0,1.3-3A2.8,2.8,0,0,0,69,4.7Z"/>
          </g>
          <path class="cls-4" d="M73.6,11.2a2.7,2.7,0,0,0-2.3,4,2.8,2.8,0,0,0,3.9.8C77.4,14.5,76.1,11.4,73.6,11.2Z"/>
          <path class="cls-4" d="M54.5,5.6a2.7,2.7,0,0,0-2.4,4,2.9,2.9,0,0,0,4,.8C58.3,8.8,57,5.8,54.5,5.6Z"/>
        </g>
      </g>
      <g>
        <path class="cls-4" d="M275.6,26.8a10.4,10.4,0,0,1-.3-3.5c.9-6.4,7.4-9.2,12.8-6.3a9.7,9.7,0,0,1,3.6,3.4,5.9,5.9,0,0,1,.7,4.8,2.8,2.8,0,0,1-3.4,2,3.8,3.8,0,0,1-1.7-.8c-.6-.4-1.1-.9-1.8-.8l-.9.2a2.6,2.6,0,0,0-1.4,2.1,3.6,3.6,0,0,1-.6,2.3,2.8,2.8,0,0,1-1.5.8C278.3,31.5,276.4,29.4,275.6,26.8Z"/>
        <g>
          <g>
            <path class="cls-4" d="M273.5,12.5c-1.9,1.8-.9,5.2,1.9,5.1a3,3,0,0,0,2.6-2,2.8,2.8,0,0,0-.9-3.1A2.9,2.9,0,0,0,273.5,12.5Z"/>
            <path class="cls-4" d="M280.4,9.4c-1.8,1.8-.8,5.2,1.9,5.1a2.9,2.9,0,0,0,2.6-2,3,3,0,0,0-.9-3.2A2.9,2.9,0,0,0,280.4,9.4Z"/>
          </g>
          <path class="cls-4" d="M288.2,11.3a2.6,2.6,0,0,0,.8,4.5,2.8,2.8,0,0,0,3.5-1.9C293.2,11.3,290.1,9.8,288.2,11.3Z"/>
          <path class="cls-4" d="M270,19.5a2.6,2.6,0,0,0,.8,4.5,2.7,2.7,0,0,0,3.5-1.9C275,19.5,272,18,270,19.5Z"/>
        </g>
      </g>
      <g>
        <path class="cls-4" d="M158.7,26.4a9.8,9.8,0,0,1,1.2-3.4c3.4-5.4,10.5-5.3,14.2-.4a9.4,9.4,0,0,1,1.9,4.6,6.4,6.4,0,0,1-1.3,4.7,2.8,2.8,0,0,1-3.9.4,4.7,4.7,0,0,1-1.3-1.5,2.7,2.7,0,0,0-1.3-1.5h-.9a2.5,2.5,0,0,0-2.2,1.4,3.3,3.3,0,0,1-1.5,1.8,2.2,2.2,0,0,1-1.6,0C159.2,31.7,158.3,29.1,158.7,26.4Z"/>
        <g>
          <g>
            <path class="cls-4" d="M162.6,12.5c-2.4.9-2.9,4.4-.3,5.4a3.1,3.1,0,0,0,3.2-.7,2.9,2.9,0,0,0,.4-3.3A2.7,2.7,0,0,0,162.6,12.5Z"/>
            <path class="cls-4" d="M170.2,12.5c-2.4.9-2.9,4.4-.3,5.4a3.1,3.1,0,0,0,3.2-.7,2.9,2.9,0,0,0,.4-3.3A2.7,2.7,0,0,0,170.2,12.5Z"/>
          </g>
          <path class="cls-4" d="M176.5,17.4a2.6,2.6,0,0,0-1.1,4.5,2.8,2.8,0,0,0,4-.3C181.1,19.5,178.9,16.9,176.5,17.4Z"/>
          <path class="cls-4" d="M156.6,17.4a2.6,2.6,0,0,0-1.1,4.5,2.8,2.8,0,0,0,4-.3C161.1,19.5,159,16.9,156.6,17.4Z"/>
        </g>
      </g>
      <g>
        <path class="cls-4" d="M202.9,88a8.3,8.3,0,0,1,1.3-3.4c3.3-5.5,10.5-5.3,14.2-.4a8.6,8.6,0,0,1,1.8,4.5,5.9,5.9,0,0,1-1.3,4.7,2.9,2.9,0,0,1-3.9.5,5.1,5.1,0,0,1-1.3-1.6c-.3-.5-.6-1.2-1.2-1.4l-.9-.2a2.7,2.7,0,0,0-2.2,1.4c-.4.7-.7,1.5-1.5,1.8a2.9,2.9,0,0,1-1.6.1C203.4,93.3,202.6,90.6,202.9,88Z"/>
        <g>
          <g>
            <path class="cls-4" d="M206.9,74c-2.4.9-2.9,4.4-.4,5.4a2.8,2.8,0,0,0,3.2-.7,2.8,2.8,0,0,0-2.8-4.7Z"/>
            <path class="cls-4" d="M214.5,74c-2.4.9-2.9,4.4-.4,5.4a2.8,2.8,0,0,0,3.2-.7,2.8,2.8,0,0,0-2.8-4.7Z"/>
          </g>
          <path class="cls-4" d="M220.8,78.9a2.7,2.7,0,0,0-1.1,4.5,2.8,2.8,0,0,0,4-.3C225.3,81,223.2,78.4,220.8,78.9Z"/>
          <path class="cls-4" d="M200.8,78.9a2.7,2.7,0,0,0-1.1,4.5,2.8,2.8,0,0,0,4-.3C205.4,81,203.2,78.4,200.8,78.9Z"/>
        </g>
      </g>
      <g>
        <path class="cls-4" d="M96.4,268.7a8.5,8.5,0,0,1,.8-3.5c2.6-5.8,9.7-6.6,14-2.3a9.8,9.8,0,0,1,2.5,4.3,6,6,0,0,1-.7,4.8,2.9,2.9,0,0,1-3.9,1,6.2,6.2,0,0,1-1.4-1.4c-.4-.5-.8-1.1-1.5-1.2h-.9a2.8,2.8,0,0,0-2,1.7,3.5,3.5,0,0,1-1.2,2,3,3,0,0,1-1.6.3C97.6,273.9,96.4,271.4,96.4,268.7Z"/>
        <g>
          <g>
            <path class="cls-4" d="M98.5,254.4c-2.3,1.2-2.3,4.7.4,5.4a2.9,2.9,0,0,0,3-1.1,3,3,0,0,0,.1-3.3A2.9,2.9,0,0,0,98.5,254.4Z"/>
            <path class="cls-4" d="M106,253.4c-2.2,1.2-2.3,4.7.4,5.4a3.1,3.1,0,0,0,3.1-1.1,3.2,3.2,0,0,0,0-3.3A2.8,2.8,0,0,0,106,253.4Z"/>
          </g>
          <path class="cls-4" d="M112.9,257.4a2.6,2.6,0,0,0-.5,4.6,2.8,2.8,0,0,0,3.9-.8C117.7,258.9,115.2,256.6,112.9,257.4Z"/>
          <path class="cls-4" d="M93.1,260.1a2.7,2.7,0,0,0-.5,4.6,2.9,2.9,0,0,0,3.9-.9C97.9,261.5,95.5,259.2,93.1,260.1Z"/>
        </g>
      </g>
      <g>
        <path class="cls-4" d="M271.7,199.7a8.8,8.8,0,0,1-.1-3.6c1.2-6.3,8-8.8,13.2-5.5a9.5,9.5,0,0,1,3.3,3.6,6.5,6.5,0,0,1,.5,4.9,3,3,0,0,1-3.5,1.8,4.8,4.8,0,0,1-1.7-1c-.6-.4-1.1-.9-1.8-.9a1.5,1.5,0,0,0-.9.2,2.6,2.6,0,0,0-1.5,2,3.8,3.8,0,0,1-.8,2.3,2.5,2.5,0,0,1-1.5.6C274,204.4,272.3,202.3,271.7,199.7Z"/>
        <g>
          <g>
            <path class="cls-4" d="M270.4,185.2c-1.9,1.7-1.1,5.2,1.6,5.2a2.8,2.8,0,0,0,2.7-1.8,2.8,2.8,0,0,0-.7-3.2A2.9,2.9,0,0,0,270.4,185.2Z"/>
            <path class="cls-4" d="M277.5,182.5c-1.9,1.7-1.1,5.2,1.6,5.2a2.8,2.8,0,0,0,2.7-1.8,2.8,2.8,0,0,0-4.3-3.4Z"/>
          </g>
          <path class="cls-4" d="M285.1,184.9a2.7,2.7,0,0,0,.6,4.6,2.9,2.9,0,0,0,3.6-1.7A2.7,2.7,0,0,0,285.1,184.9Z"/>
          <path class="cls-4" d="M266.5,192a2.7,2.7,0,0,0,.6,4.6,2.9,2.9,0,0,0,3.6-1.7A2.7,2.7,0,0,0,266.5,192Z"/>
        </g>
      </g>
      <g>
        <path class="cls-4" d="M213.7,289.7a8.8,8.8,0,0,1-.1-3.6c1.2-6.3,8-8.8,13.2-5.5a9.5,9.5,0,0,1,3.3,3.6,6.5,6.5,0,0,1,.5,4.9,3,3,0,0,1-3.5,1.8,4.8,4.8,0,0,1-1.7-1c-.6-.4-1.1-.9-1.8-.9a1.5,1.5,0,0,0-.9.2,2.6,2.6,0,0,0-1.5,2,3.8,3.8,0,0,1-.8,2.3,2.5,2.5,0,0,1-1.5.6C216,294.4,214.3,292.3,213.7,289.7Z"/>
        <g>
          <g>
            <path class="cls-4" d="M212.4,275.2c-1.9,1.7-1.1,5.2,1.6,5.2a2.8,2.8,0,0,0,2.7-1.8,2.8,2.8,0,0,0-.7-3.2A2.9,2.9,0,0,0,212.4,275.2Z"/>
            <path class="cls-4" d="M219.5,272.5c-1.9,1.7-1.1,5.2,1.6,5.2a2.8,2.8,0,0,0,2.7-1.8,2.8,2.8,0,0,0-4.3-3.4Z"/>
          </g>
          <path class="cls-4" d="M227.1,274.9a2.7,2.7,0,0,0,.6,4.6,2.9,2.9,0,0,0,3.6-1.7A2.7,2.7,0,0,0,227.1,274.9Z"/>
          <path class="cls-4" d="M208.5,282a2.7,2.7,0,0,0,.6,4.6,2.9,2.9,0,0,0,3.6-1.7A2.7,2.7,0,0,0,208.5,282Z"/>
        </g>
      </g>
      <g>
        <path class="cls-4" d="M158.1,228.2a8.1,8.1,0,0,1,1.9-3.1c4.4-4.6,11.4-3,14,2.5a9.2,9.2,0,0,1,.9,4.9,6.1,6.1,0,0,1-2.3,4.3,2.8,2.8,0,0,1-3.9-.4,4,4,0,0,1-.9-1.7,2.7,2.7,0,0,0-1-1.7l-.8-.4a2.6,2.6,0,0,0-2.4.9,4,4,0,0,1-1.9,1.5,2.3,2.3,0,0,1-1.6-.3C157.5,233.4,157.2,230.7,158.1,228.2Z"/>
        <g>
          <g>
            <path class="cls-4" d="M164.8,215.3c-2.5.4-3.7,3.7-1.4,5.3a2.9,2.9,0,0,0,4.4-3.2A3,3,0,0,0,164.8,215.3Z"/>
            <path class="cls-4" d="M172.3,216.9c-2.6.4-3.8,3.7-1.5,5.2a2.9,2.9,0,0,0,3.3,0,3.1,3.1,0,0,0,1.1-3.1A2.8,2.8,0,0,0,172.3,216.9Z"/>
          </g>
          <path class="cls-4" d="M177.4,223a2.7,2.7,0,0,0-2,4.2,2.9,2.9,0,0,0,4,.5C181.4,226,179.9,223,177.4,223Z"/>
          <path class="cls-4" d="M157.9,218.9a2.6,2.6,0,0,0-2,4.2,2.7,2.7,0,0,0,3.9.5C161.9,221.8,160.4,218.9,157.9,218.9Z"/>
        </g>
      </g>
    </g>
    <g id="circulos">
      <path class="cls-5" d="M32.6,216.7c-2.6.9-3.1,4.7-.4,5.8a3.3,3.3,0,0,0,3.4-.8,3,3,0,0,0,.5-3.5A3,3,0,0,0,32.6,216.7Z"/>
      <path class="cls-5" d="M51,139.9c-4.3,1.5-5.2,7.8-.6,9.7a5.5,5.5,0,0,0,5.8-1.3,5.4,5.4,0,0,0,.8-5.8C55.9,140.4,53.2,139,51,139.9Z"/>
      <path class="cls-5" d="M40.7,153.7c-2.5,1-3,4.7-.3,5.8a3,3,0,0,0,3.9-4.2A3.1,3.1,0,0,0,40.7,153.7Z"/>
      <path class="cls-5" d="M27.2,143.8c-1.7.6-2.1,3.3-.2,4a2.2,2.2,0,0,0,2.4-.5,2.1,2.1,0,0,0,.3-2.4A2,2,0,0,0,27.2,143.8Z"/>
      <path class="cls-5" d="M59.8,198.2c-1.8.7-2.2,3.3-.3,4.1a2.3,2.3,0,0,0,2.4-.5,2.3,2.3,0,0,0,.4-2.5A2.3,2.3,0,0,0,59.8,198.2Z"/>
      <path class="cls-5" d="M10.8,188.2c-1.8.7-2.2,3.3-.3,4.1a2.3,2.3,0,0,0,2.4-.5,2.3,2.3,0,0,0,.4-2.5A2.3,2.3,0,0,0,10.8,188.2Z"/>
      <path class="cls-5" d="M94.4,213.6c-4.3,1.6-5.2,7.9-.6,9.7a5.1,5.1,0,1,0,.6-9.7Z"/>
      <path class="cls-5" d="M184.4,142.7c-4.3,1.6-5.2,7.8-.6,9.7a5.3,5.3,0,0,0,5.7-1.3,5.2,5.2,0,0,0,.8-5.8A5,5,0,0,0,184.4,142.7Z"/>
      <path class="cls-5" d="M215.8,160.7c-4.3,1.6-5.2,7.9-.6,9.7a5.3,5.3,0,0,0,5.7-1.3,5.2,5.2,0,0,0,.8-5.8A5,5,0,0,0,215.8,160.7Z"/>
      <path class="cls-5" d="M115.8,168.7c-4.3,1.6-5.2,7.9-.6,9.7a5.3,5.3,0,0,0,5.7-1.3,5.2,5.2,0,0,0,.8-5.8A5,5,0,0,0,115.8,168.7Z"/>
      <path class="cls-5" d="M155.3,183.4c-2.6,1-3.1,4.7-.4,5.8a3.1,3.1,0,1,0,.4-5.8Z"/>
      <path class="cls-5" d="M207.3,194.7c-2.5,1-3.1,4.7-.3,5.8a3,3,0,0,0,3.4-.8,3.2,3.2,0,0,0,.5-3.4A3.1,3.1,0,0,0,207.3,194.7Z"/>
      <path class="cls-5" d="M254.4,216.7c-2.6.9-3.1,4.7-.4,5.8a3.5,3.5,0,0,0,3.5-.8,3.2,3.2,0,0,0,.4-3.5A3,3,0,0,0,254.4,216.7Z"/>
      <path class="cls-5" d="M188.3,190.3c-1.8.7-2.2,3.3-.3,4.1a2.2,2.2,0,0,0,2.4-.6,2.1,2.1,0,0,0,.4-2.4A2.2,2.2,0,0,0,188.3,190.3Z"/>
      <path class="cls-5" d="M272.9,139.9c-4.3,1.5-5.2,7.8-.6,9.7a5.3,5.3,0,0,0,5.7-1.3,5.4,5.4,0,0,0,.8-5.8C277.8,140.4,275.1,139,272.9,139.9Z"/>
      <path class="cls-5" d="M262.6,167.7c-2.6,1-3.1,4.7-.4,5.8a3,3,0,0,0,3.9-4.2A3,3,0,0,0,262.6,167.7Z"/>
      <path class="cls-5" d="M249.1,143.8c-1.8.6-2.2,3.3-.3,4a2.2,2.2,0,0,0,2.8-2.9A2.1,2.1,0,0,0,249.1,143.8Z"/>
      <path class="cls-5" d="M283.6,218.2a2.2,2.2,0,0,0-.2,4.1,2.3,2.3,0,0,0,2.4-.5,2.2,2.2,0,0,0-2.2-3.6Z"/>
      <path class="cls-5" d="M92,178.1c-2.5.9-3,4.7-.3,5.8a3.3,3.3,0,0,0,3.4-.8,3.4,3.4,0,0,0,.5-3.5A3.1,3.1,0,0,0,92,178.1Z"/>
      <path class="cls-5" d="M73,173.7a2.1,2.1,0,0,0-.3,4,2.2,2.2,0,0,0,2.8-3A2.1,2.1,0,0,0,73,173.7Z"/>
      <path class="cls-5" d="M110.5,228.1a2.2,2.2,0,1,0,2.2,3.5,2.1,2.1,0,0,0,.3-2.4A2.2,2.2,0,0,0,110.5,228.1Z"/>
      <path class="cls-5" d="M15.6,114.9c-2.6,1-3.1,4.7-.4,5.8a3,3,0,0,0,3.9-4.2A3,3,0,0,0,15.6,114.9Z"/>
      <path class="cls-5" d="M5.8,22.4a2.2,2.2,0,0,0-.2,4.1A2.2,2.2,0,0,0,8,25.9a2.2,2.2,0,0,0-2.2-3.5Z"/>
      <path class="cls-5" d="M99,27.1c-4.3,1.6-5.2,7.9-.6,9.7a5.2,5.2,0,0,0,6.6-7.1C103.9,27.7,101.2,26.3,99,27.1Z"/>
      <path class="cls-5" d="M30.7,2c-2.5,1-3,4.7-.3,5.8A3.1,3.1,0,0,0,33.8,7a2.9,2.9,0,0,0,.5-3.4A3,3,0,0,0,30.7,2Z"/>
      <path class="cls-5" d="M27.2,34c-1.7.7-2.1,3.3-.2,4.1a2.3,2.3,0,0,0,2.4-.5,2.3,2.3,0,0,0,.3-2.5A2.2,2.2,0,0,0,27.2,34Z"/>
      <path class="cls-5" d="M59.8,88.5c-1.8.7-2.2,3.3-.3,4.1a2.2,2.2,0,0,0,2.4-.6,2.1,2.1,0,0,0,.4-2.4A2.2,2.2,0,0,0,59.8,88.5Z"/>
      <path class="cls-5" d="M94.4,103.9c-4.3,1.6-5.2,7.9-.6,9.7a5.1,5.1,0,0,0,6.5-7.1A5,5,0,0,0,94.4,103.9Z"/>
      <path class="cls-5" d="M154.4,35.9c-4.3,1.6-5.2,7.9-.6,9.8a5.5,5.5,0,0,0,5.7-1.3,5.3,5.3,0,0,0,.8-5.9A5.1,5.1,0,0,0,154.4,35.9Z"/>
      <path class="cls-5" d="M218.1,61.2c-4.3,1.6-5.2,7.9-.6,9.7a5.1,5.1,0,1,0,.6-9.7Z"/>
      <path class="cls-5" d="M170.6,66.5c-2.6.9-3.1,4.7-.4,5.8a3.3,3.3,0,0,0,3.4-.8,3,3,0,0,0,.5-3.5A3,3,0,0,0,170.6,66.5Z"/>
      <path class="cls-5" d="M120.6,15.5c-2.6.9-3.1,4.7-.4,5.8a3.3,3.3,0,0,0,3.4-.8,3,3,0,0,0,.5-3.5A3,3,0,0,0,120.6,15.5Z"/>
      <path class="cls-5" d="M189.6,94.2c-2.5,1-3.1,4.7-.4,5.8a3.2,3.2,0,0,0,3.5-.7,3.4,3.4,0,0,0,.5-3.5A3.4,3.4,0,0,0,189.6,94.2Z"/>
      <path class="cls-5" d="M254.4,106.9c-2.6,1-3.1,4.7-.4,5.8a3,3,0,0,0,3.9-4.2A3,3,0,0,0,254.4,106.9Z"/>
      <path class="cls-5" d="M239.6,74.8c-1.8.7-2.2,3.3-.3,4.1a2.3,2.3,0,0,0,2.4-.5,2.3,2.3,0,0,0,.3-2.5A2.1,2.1,0,0,0,239.6,74.8Z"/>
      <path class="cls-5" d="M295.6,160.8c-1.8.7-2.2,3.3-.3,4.1a2.3,2.3,0,0,0,2.4-.5,2.3,2.3,0,0,0,.3-2.5A2.1,2.1,0,0,0,295.6,160.8Z"/>
      <path class="cls-5" d="M210.6,111.8c-1.8.7-2.2,3.3-.3,4.1a2.3,2.3,0,0,0,2.4-.5,2.3,2.3,0,0,0,.3-2.5A2.1,2.1,0,0,0,210.6,111.8Z"/>
      <path class="cls-5" d="M272.9,64.1c-4.3,1.6-5.2,7.9-.6,9.7a5.1,5.1,0,0,0,5.7-1.3,5.3,5.3,0,0,0,.8-5.8A5.1,5.1,0,0,0,272.9,64.1Z"/>
      <path class="cls-5" d="M285.6,39c-2.6,1-3.1,4.7-.4,5.8a3.3,3.3,0,0,0,3.5-.8,3,3,0,0,0,.4-3.4A2.9,2.9,0,0,0,285.6,39Z"/>
      <path class="cls-5" d="M245.6,35c-2.6,1-3.1,4.7-.4,5.8a3.3,3.3,0,0,0,3.5-.8,3,3,0,0,0,.4-3.4A2.9,2.9,0,0,0,245.6,35Z"/>
      <path class="cls-5" d="M247.1,18c-1.8.7-2.2,3.3-.3,4.1a2.3,2.3,0,0,0,2.4-.5,2.3,2.3,0,0,0,.4-2.5A2.3,2.3,0,0,0,247.1,18Z"/>
      <path class="cls-5" d="M281.6,88.5a2.2,2.2,0,1,0,2.2,3.5,2.1,2.1,0,0,0,.3-2.4A2.2,2.2,0,0,0,281.6,88.5Z"/>
      <path class="cls-5" d="M71,119.3c-2.5,1-3,4.7-.3,5.8a3.1,3.1,0,0,0,3.4-.7,3.4,3.4,0,0,0,.5-3.5A3.1,3.1,0,0,0,71,119.3Z"/>
      <path class="cls-5" d="M23,90.3c-2.5,1-3,4.7-.3,5.8a3.1,3.1,0,0,0,3.4-.7,3.4,3.4,0,0,0,.5-3.5A3.1,3.1,0,0,0,23,90.3Z"/>
      <path class="cls-5" d="M56,69.9c-1.8.7-2.2,3.3-.3,4.1a2.2,2.2,0,0,0,2.4-.6,2.1,2.1,0,0,0,.4-2.4A2.3,2.3,0,0,0,56,69.9Z"/>
      <path class="cls-5" d="M110.5,118.4a2.2,2.2,0,1,0,2.2,3.5,2.1,2.1,0,0,0,.3-2.4A2,2,0,0,0,110.5,118.4Z"/>
      <path class="cls-5" d="M137.5,95.4a2.2,2.2,0,1,0,2.2,3.5,2.1,2.1,0,0,0,.3-2.4A2,2,0,0,0,137.5,95.4Z"/>
      <path class="cls-5" d="M197.5,3.4a2.2,2.2,0,1,0,2.2,3.5,2.1,2.1,0,0,0,.3-2.4A2,2,0,0,0,197.5,3.4Z"/>
      <path class="cls-5" d="M52,238.8c-4.3,1.6-5.2,7.9-.6,9.7a5.3,5.3,0,0,0,5.8-1.3,5.4,5.4,0,0,0,.8-5.8A5.2,5.2,0,0,0,52,238.8Z"/>
      <path class="cls-5" d="M5,283.8c-4.3,1.6-5.2,7.9-.6,9.7a5.3,5.3,0,0,0,5.8-1.3,5.4,5.4,0,0,0,.8-5.8A5.2,5.2,0,0,0,5,283.8Z"/>
      <path class="cls-5" d="M40.7,262.7c-2.5.9-3,4.7-.3,5.8a3.3,3.3,0,0,0,3.4-.8,3,3,0,0,0-3.1-5Z"/>
      <path class="cls-5" d="M27.2,252.7c-1.7.7-2.1,3.3-.2,4.1a2.2,2.2,0,0,0,2.4-.6,2.2,2.2,0,0,0-2.2-3.5Z"/>
      <path class="cls-5" d="M184.4,245.6c-4.3,1.6-5.2,7.9-.6,9.7a5.1,5.1,0,1,0,.6-9.7Z"/>
      <path class="cls-5" d="M153.3,291.4c-2.6.9-3.1,4.7-.4,5.8a3.3,3.3,0,0,0,3.4-.8,3,3,0,0,0,.5-3.5A3,3,0,0,0,153.3,291.4Z"/>
      <path class="cls-5" d="M280.9,253.8c-4.3,1.6-5.2,7.9-.6,9.7a5.1,5.1,0,0,0,5.7-1.3,5.4,5.4,0,0,0,.8-5.8A5,5,0,0,0,280.9,253.8Z"/>
      <path class="cls-5" d="M270.6,288.7c-2.6.9-3.1,4.7-.4,5.8a3.5,3.5,0,0,0,3.5-.8,3.2,3.2,0,0,0,.4-3.5A3,3,0,0,0,270.6,288.7Z"/>
      <path class="cls-5" d="M249.1,252.7c-1.8.7-2.2,3.3-.3,4.1a2.2,2.2,0,0,0,2.4-.6,2.1,2.1,0,0,0,.4-2.4A2.2,2.2,0,0,0,249.1,252.7Z"/>
      <path class="cls-5" d="M75,283c-2.5,1-3,4.7-.3,5.8a3.1,3.1,0,0,0,3.4-.8,3.4,3.4,0,0,0,.5-3.5A3.1,3.1,0,0,0,75,283Z"/>
      <path class="cls-5" d="M43,282.6c-1.8.7-2.2,3.3-.3,4.1a2.2,2.2,0,0,0,2.4-.6,2.1,2.1,0,0,0,.4-2.4A2.1,2.1,0,0,0,43,282.6Z"/>
    </g>
  </g>
</svg>
