<svg id="Layer_1" data-name="Layer 1" xmlns="http://www.w3.org/2000/svg" viewBox="0 0 300 300">
  <defs>
    <style>
      .cls-1 {
        fill: #fff;
      }
    </style>
  </defs>
  <title>paw1Artboard 2</title>
  <g>
    <path class="cls-1" d="M64.6,187.3a88.8,88.8,0,0,1,12.1-33.4c33.7-53.7,104.1-52.3,140.7-3.6,9.4,12.5,16.5,28.1,18.2,44.9s-2.8,35-13.3,46.2-27.1,13.9-38.7,4.4a54,54,0,0,1-12.3-15c-3.1-5.8-6.2-11.8-12.6-14.5a19,19,0,0,0-8.8-1.4c-9.6.4-17.3,5.1-21.6,13.4S121,243,113.5,246.2c-5.2,2.2-10.8,2.1-16.2.7C69.4,239.7,60.9,213.3,64.6,187.3Z"/>
    <g>
      <g>
        <path class="cls-1" d="M103.8,49.7c-23.6,8.7-28.6,43.3-3.5,53.6A29.3,29.3,0,0,0,132,96.2a29.1,29.1,0,0,0,4.5-32.1C130.8,52.8,116.1,45.2,103.8,49.7Z"/>
        <path class="cls-1" d="M178.8,49.9c-23.6,8.7-28.6,43.3-3.4,53.5,10.6,4.4,23.8,1.4,31.7-7a29.5,29.5,0,0,0,4.5-32.2C205.9,53,191.1,45.3,178.8,49.9Z"/>
      </g>
      <path class="cls-1" d="M240.9,98.6c-19.7,4.4-25.6,30.8-11,44.4,10.8,10.1,30.3,8.7,39.5-3C286,119,264.9,93.4,240.9,98.6Z"/>
      <path class="cls-1" d="M43.9,98.3c-19.7,4.3-25.7,30.7-11.1,44.3,10.9,10.1,30.3,8.7,39.5-3C88.9,118.6,67.8,93,43.9,98.3Z"/>
    </g>
  </g>
</svg>
