<svg id="Layer_1" data-name="Layer 1" xmlns="http://www.w3.org/2000/svg" viewBox="0 0 300 300">
  <defs>
    <style>
      .cls-1 {
        opacity: 0.26;
      }

      .cls-2 {
        fill: #40b8a8;
      }
    </style>
  </defs>
  <title>pawsArtboard 2</title>
  <g>
    <g class="cls-1">
      <path class="cls-2" d="M23.4,200.9a15.7,15.7,0,0,1,6.4-3c12.2-2.9,22,7.2,20.3,19.2a18,18,0,0,1-3.7,8.8c-2.2,2.6-5.4,4.6-8.4,4.7s-5.8-1.9-6.1-4.8a12.9,12.9,0,0,1,.4-3.9,5.5,5.5,0,0,0,.3-3.8,3.6,3.6,0,0,0-1.1-1.4,4.7,4.7,0,0,0-4.9-1.1c-1.5.4-3.1,1-4.6.4a5.1,5.1,0,0,1-2.4-2.2C16.7,208.9,19.2,204,23.4,200.9Z"/>
      <g>
        <g>
          <path class="cls-2" d="M48.2,187c-4.5-2.1-10.1,2.1-8,7a5.9,5.9,0,0,0,5.5,3.5,5.8,5.8,0,0,0,5.1-3.9A5.5,5.5,0,0,0,48.2,187Z"/>
          <path class="cls-2" d="M58.7,197.5c-4.5-2.1-10.1,2.1-8,7.1a5.8,5.8,0,0,0,5.5,3.4,5.7,5.7,0,0,0,5.1-3.9A5.5,5.5,0,0,0,58.7,197.5Z"/>
        </g>
        <path class="cls-2" d="M60.6,213.1c-3.3-2.2-7.9.7-7.7,4.7a5.5,5.5,0,0,0,6,5.1C64.1,222.3,64.8,215.7,60.6,213.1Z"/>
        <path class="cls-2" d="M33,185.4a5.2,5.2,0,0,0-7.8,4.7,5.5,5.5,0,0,0,6,5.1C36.5,194.6,37.1,188,33,185.4Z"/>
      </g>
    </g>
    <g class="cls-1">
      <path class="cls-2" d="M117.5,208.6a17.8,17.8,0,0,1,6.4-3c12.3-2.8,22,7.2,20.3,19.2a17.9,17.9,0,0,1-3.7,8.9,11.9,11.9,0,0,1-8.4,4.6,5.6,5.6,0,0,1-6-4.8,9.9,9.9,0,0,1,.4-3.8c.3-1.3.7-2.5.2-3.8a4,4,0,0,0-1-1.5,5,5,0,0,0-4.9-1.1c-1.5.5-3.1,1.1-4.6.5a5.2,5.2,0,0,1-2.4-2.2C110.9,216.7,113.4,211.7,117.5,208.6Z"/>
      <g>
        <g>
          <path class="cls-2" d="M142.3,194.7c-4.5-2.1-10.1,2.1-8,7.1a5.8,5.8,0,0,0,5.5,3.4,5.7,5.7,0,0,0,5.1-3.9A5.5,5.5,0,0,0,142.3,194.7Z"/>
          <path class="cls-2" d="M152.9,205.3c-4.6-2.1-10.1,2.1-8,7a5.7,5.7,0,0,0,10.6-.4A5.6,5.6,0,0,0,152.9,205.3Z"/>
        </g>
        <path class="cls-2" d="M154.8,220.9c-3.4-2.2-7.9.7-7.8,4.6a5.7,5.7,0,0,0,6,5.2C158.3,230,158.9,223.5,154.8,220.9Z"/>
        <path class="cls-2" d="M127.1,193.2c-3.4-2.2-7.9.7-7.8,4.7a5.7,5.7,0,0,0,6,5.1C130.6,202.3,131.2,195.8,127.1,193.2Z"/>
      </g>
    </g>
    <g class="cls-1">
      <path class="cls-2" d="M171.5,148.7a17.1,17.1,0,0,1,6.4-3c12.2-2.9,21.9,7.2,20.3,19.2a18.1,18.1,0,0,1-3.8,8.9c-2.1,2.6-5.3,4.5-8.3,4.6s-5.8-1.8-6.1-4.8a9.7,9.7,0,0,1,.4-3.8,5.9,5.9,0,0,0,.3-3.9,7.6,7.6,0,0,0-1.1-1.4,4.7,4.7,0,0,0-4.9-1.1c-1.5.5-3.1,1-4.6.4a5.4,5.4,0,0,1-2.4-2.1C164.8,156.7,167.3,151.8,171.5,148.7Z"/>
      <g>
        <g>
          <path class="cls-2" d="M196.3,134.8c-4.6-2.1-10.1,2.1-8,7.1a5.7,5.7,0,0,0,5.4,3.4,5.8,5.8,0,0,0,5.2-3.9C199.6,139,198.6,135.9,196.3,134.8Z"/>
          <path class="cls-2" d="M206.8,145.4c-4.5-2.1-10.1,2-8,7a6.1,6.1,0,0,0,5.5,3.5,5.8,5.8,0,0,0,5.1-3.9C210.2,149.6,209.2,146.4,206.8,145.4Z"/>
        </g>
        <path class="cls-2" d="M208.7,160.9c-3.4-2.1-7.9.7-7.8,4.7a5.6,5.6,0,0,0,6,5.1C212.2,170.1,212.8,163.5,208.7,160.9Z"/>
        <path class="cls-2" d="M181,133.2c-3.3-2.1-7.9.8-7.7,4.7a5.6,5.6,0,0,0,5.9,5.2C184.5,142.4,185.1,135.9,181,133.2Z"/>
      </g>
    </g>
    <g class="cls-1">
      <path class="cls-2" d="M241.7,101.4a17.1,17.1,0,0,1,6.4-3c12.2-2.9,22,7.2,20.3,19.2a17.2,17.2,0,0,1-3.8,8.9c-2.1,2.6-5.3,4.5-8.3,4.6s-5.8-1.8-6.1-4.8a12,12,0,0,1,.4-3.8,5.9,5.9,0,0,0,.3-3.9,4.9,4.9,0,0,0-1.1-1.4,4.7,4.7,0,0,0-4.9-1.1c-1.5.4-3.1,1-4.6.4a5.4,5.4,0,0,1-2.4-2.1C235,109.4,237.5,104.5,241.7,101.4Z"/>
      <g>
        <g>
          <path class="cls-2" d="M266.5,87.5c-4.6-2.1-10.1,2.1-8,7.1a5.7,5.7,0,0,0,10.6-.5A5.5,5.5,0,0,0,266.5,87.5Z"/>
          <path class="cls-2" d="M277,98c-4.5-2-10.1,2.1-8,7.1a5.8,5.8,0,0,0,5.5,3.4,5.6,5.6,0,0,0,5.1-3.8C280.4,102.3,279.4,99.1,277,98Z"/>
        </g>
        <path class="cls-2" d="M278.9,113.6c-3.3-2.1-7.9.7-7.7,4.7a5.4,5.4,0,0,0,5.9,5.1C282.4,122.8,283,116.2,278.9,113.6Z"/>
        <path class="cls-2" d="M251.3,85.9c-3.4-2.1-8,.8-7.8,4.7a5.5,5.5,0,0,0,6,5.1C254.7,95.1,255.4,88.6,251.3,85.9Z"/>
      </g>
    </g>
    <g class="cls-1">
      <path class="cls-2" d="M158,77.8a19.7,19.7,0,0,1,6.4-3c12.3-2.8,22,7.3,20.3,19.3a18,18,0,0,1-3.7,8.8c-2.1,2.6-5.3,4.6-8.4,4.7a5.6,5.6,0,0,1-6-4.8,10.2,10.2,0,0,1,.4-3.9,6.2,6.2,0,0,0,.2-3.8,3.6,3.6,0,0,0-1-1.4,5,5,0,0,0-4.9-1.2c-1.5.5-3.1,1.1-4.6.5a4.3,4.3,0,0,1-2.4-2.2C151.4,85.9,153.9,81,158,77.8Z"/>
      <g>
        <g>
          <path class="cls-2" d="M182.8,64c-4.5-2.1-10.1,2-8,7a5.9,5.9,0,0,0,5.5,3.5,5.8,5.8,0,0,0,5.1-3.9C186.2,68.2,185.2,65,182.8,64Z"/>
          <path class="cls-2" d="M193.4,74.5c-4.6-2.1-10.1,2.1-8,7.1a5.7,5.7,0,0,0,10.6-.5A5.6,5.6,0,0,0,193.4,74.5Z"/>
        </g>
        <path class="cls-2" d="M195.3,90.1c-3.4-2.2-7.9.7-7.8,4.7a5.7,5.7,0,0,0,6,5.1C198.8,99.3,199.4,92.7,195.3,90.1Z"/>
        <path class="cls-2" d="M167.6,62.4c-3.4-2.2-7.9.7-7.8,4.7a5.6,5.6,0,0,0,6,5.1C171.1,71.6,171.7,65,167.6,62.4Z"/>
      </g>
    </g>
    <g class="cls-1">
      <path class="cls-2" d="M86,142.6a17.1,17.1,0,0,1,6.4-3c12.2-2.9,21.9,7.2,20.3,19.2a18.1,18.1,0,0,1-3.8,8.9c-2.1,2.6-5.3,4.5-8.3,4.6s-5.8-1.8-6.1-4.8a9.7,9.7,0,0,1,.4-3.8,5.9,5.9,0,0,0,.3-3.9,7.6,7.6,0,0,0-1.1-1.4,4.7,4.7,0,0,0-4.9-1.1c-1.5.4-3.1,1-4.6.4a5.4,5.4,0,0,1-2.4-2.1C79.3,150.6,81.8,145.7,86,142.6Z"/>
      <g>
        <g>
          <path class="cls-2" d="M110.8,128.7c-4.6-2.1-10.1,2.1-8,7.1a5.7,5.7,0,0,0,5.4,3.4,5.8,5.8,0,0,0,5.2-3.9C114.1,132.9,113.1,129.8,110.8,128.7Z"/>
          <path class="cls-2" d="M121.3,139.2c-4.5-2-10.1,2.1-8,7.1a5.8,5.8,0,0,0,5.5,3.4,5.6,5.6,0,0,0,5.1-3.8C124.7,143.5,123.7,140.3,121.3,139.2Z"/>
        </g>
        <path class="cls-2" d="M123.2,154.8c-3.4-2.1-7.9.7-7.8,4.7a5.6,5.6,0,0,0,6,5.1C126.7,164,127.3,157.4,123.2,154.8Z"/>
        <path class="cls-2" d="M95.5,127.1c-3.3-2.1-7.9.8-7.7,4.7a5.4,5.4,0,0,0,5.9,5.1C99,136.3,99.6,129.8,95.5,127.1Z"/>
      </g>
    </g>
  </g>
</svg>
