<svg id="Layer_1" data-name="Layer 1" xmlns="http://www.w3.org/2000/svg" viewBox="0 0 300 300">
  <defs>
    <style>
      .cls-1 {
        fill: #aca092;
      }

      .cls-2 {
        fill: #d3c5b4;
      }

      .cls-3 {
        fill: #352413;
      }

      .cls-4 {
        fill: #e5d6c4;
      }

      .cls-5 {
        fill: none;
        stroke: #d5d4d0;
        stroke-linecap: round;
        stroke-miterlimit: 10;
        stroke-width: 2.5px;
      }
    </style>
  </defs>
  <title>tan1Artboard 2</title>
  <g>
    <path class="cls-1" d="M122.4,117.5l-.4.7-.2.6-.5,1.1a18,18,0,0,0-.8,2.1c-.5,1.4-1,2.7-1.4,4.1s-1.5,5.3-2.1,7.9a123.5,123.5,0,0,0-2.5,15.8c-1,10.4-.2,25.3-.2,25.3l-2.5.3h-1.2a4.7,4.7,0,0,0-4.1,4.5h0c-.2,3-.3,5.9-.5,8.9s-.1,5.9-.1,8.9,0,5.9.2,9c.1,1.5.2,3,.4,4.6a20.5,20.5,0,0,0,.5,2.4,11.1,11.1,0,0,0,1,2.9h0a2.8,2.8,0,0,0,1.6,1.4h.1l6.5,2.1a2.8,2.8,0,1,0,1.8-5.4l-6.6-2.1,1.7,1.4h0a3.5,3.5,0,0,1-.2-1.3,11.5,11.5,0,0,1-.1-1.9c0-1.3.1-2.7.2-4.1s.6-5.6,1-8.4.9-5.7,1.4-8.5l.5-2.8h0l5.4.2a5.7,5.7,0,0,0,6.3-4.9l.2-1.6h0a136.5,136.5,0,0,1,6.8-26.6,109.2,109.2,0,0,1,5.4-12c1-2,2.1-3.8,3.2-5.6l1.7-2.5.9-1.1a1,1,0,0,1,.4-.5v-.2c.1,0,.2-.1.1,0a14.1,14.1,0,1,0-24-14.8Z"/>
    <path class="cls-2" d="M86.9,201.3q0,4.5.3,9c.1,1.5.2,3,.4,4.6s.3,1.6.5,2.5a10.6,10.6,0,0,0,1,2.8h0a2.5,2.5,0,0,0,1.6,1.4h.1l6.5,2.1a2.8,2.8,0,0,0,3.6-1.8,2.8,2.8,0,0,0-1.8-3.5L94,216.7a2.5,2.5,0,0,0,.2,1l-1.7-1.5,1.5.5v-.4a11.5,11.5,0,0,1-.1-1.9c0-1.3.1-2.7.2-4.1s.6-5.6,1-8.4.9-5.6,1.4-8.5a27.4,27.4,0,0,1,.5-2.8l5.4.2a5.6,5.6,0,0,0,6.3-4.8l.2-1.7a127.3,127.3,0,0,1,6.5-25.7,14.8,14.8,0,0,1,3.2,2.7c5.1,5.8,11,17.3,21,26.3,0,1.2.1,2.5.1,3.8.2,6.4.7,12.6,1.4,18.8,1.4,12.4,3.4,24.5,5.7,36.6v.7c.1.1.1.3.2.4l3.4,7.7a5,5,0,0,0,6.5,2.6,5,5,0,0,0,2.8-5.9l-1.9-7.1c-.8-12-1.2-24-1.1-35.8.1-3.9.2-7.7.4-11.6a48.5,48.5,0,0,0,13.2,2.3h1.9a34.1,34.1,0,0,0,8.5-1.1c.3,3.7.6,7.4,1,11.1,1.4,12.4,3.4,24.5,5.7,36.6l.2.7a.6.6,0,0,0,.1.4l3.4,7.7a5,5,0,0,0,6.5,2.6,5,5,0,0,0,2.8-5.9l-1.9-7.1c-.7-12-1.2-24-1.1-35.8.1-5.9.4-11.8.9-17.5.1-1.5.3-3,.5-4.5a25.1,25.1,0,0,0,3.2-4.6,6.7,6.7,0,0,1-2.4-.4l.6-2.6a8.4,8.4,0,0,1,.5-1.7,1.1,1.1,0,0,1,.2-.6v-.2H201a10.1,10.1,0,0,0-14.1-13.2c-.1-1-.1-2-.1-3.1,0-11.9,7.2-21.6,16.1-21.6h2c-2.2-16.2-6.3-35.9-13.5-43.1,0,0-37.5,14.9-57.4,8.7a24.4,24.4,0,0,0-7.7-1.3c-11,0-20.4,7.3-24.1,17.5l.9.2a10.2,10.2,0,0,1-.7,19.6l-1.9.2a8.1,8.1,0,0,1-3.1-.6c-.8,4.2-1.4,8.3-1.8,12.4-1,10.5-.2,25.3-.2,25.3l-2.5.3-1.2.2a4.7,4.7,0,0,0-4.1,4.4h0c-.2,3-.4,6-.5,8.9S87,198.3,86.9,201.3Zm16.5-37.5a.6.6,0,0,1,.2-.4Z"/>
    <path class="cls-3" d="M186.8,161.2c0-11.9,7.2-21.6,16.1-21.6h2c1.1,7.7,1.7,14.6,2,19a27.8,27.8,0,0,1,.4,5.1,36.8,36.8,0,0,1-5.2,19C193.6,182.3,186.8,172.8,186.8,161.2Z"/>
    <path class="cls-3" d="M98.1,137.6c.6-2.7,1.3-5.3,2.1-8l.5-1.5a28.8,28.8,0,0,1,1.5-6.6l.9.2a10.2,10.2,0,0,1-.7,19.6l-1.9.2a8.1,8.1,0,0,1-3.1-.6C97.6,139.8,97.8,138.7,98.1,137.6Z"/>
    <path class="cls-4" d="M130.1,96.8h0a31.6,31.6,0,0,1,10.4-17.7c-11-11.4-8.6-32.3-7.6-35.5s3.3-1,3.3-1l21,28h0a39.9,39.9,0,0,1,9.2-1A40.4,40.4,0,0,1,180,71.9h0l25.7-29s2.5-3.3,4.3,0,9.3,44.4-8.3,50.5a29.1,29.1,0,0,1,1.4,8.9c0,15.4-11.8,28.3-27.9,31.8-10.7,14.5-27.9,22.7-31.9,22.7s-22.3-9.9-21.8-14.9S130.1,96.8,130.1,96.8Z"/>
    <path class="cls-3" d="M154.6,81.4c-9.9,8.8-12.3,22.2-5.4,30s20.6,7.1,30.5-1.7,12.3-22.2,5.3-30S164.5,72.6,154.6,81.4Z"/>
    <path class="cls-3" d="M121.5,142.7c0,2.7,3.6,5,8.1,5s8-2.3,8-5-3.6-5.1-8-5.1S121.5,139.9,121.5,142.7Z"/>
    <path class="cls-3" d="M141,155.3c2.5,0,11.3-1.4,28.1-18.1a1,1,0,0,0-1.4-1.4c-17.3,17.2-25.7,17.5-26.8,17.5l-12.8-8a1,1,0,0,0-1.4.4.9.9,0,0,0,.3,1.3l13.2,8.2h.8Z"/>
    <path class="cls-2" d="M117.3,106.4H117l-.4-.2-.8-.5-1.8-1.4a26.7,26.7,0,0,1-3.1-3.5,25.7,25.7,0,0,1-3.9-8.9,37.1,37.1,0,0,1-1-10.6,58.3,58.3,0,0,1,1.5-10.9h0a1.6,1.6,0,0,0-1.3-2.1,1.7,1.7,0,0,0-2,1,53.4,53.4,0,0,0-3.7,11.3,41.8,41.8,0,0,0-1.1,12.3,34.1,34.1,0,0,0,3,12.7,40.5,40.5,0,0,0,3.6,5.9,28.5,28.5,0,0,0,2.3,2.6l1.3,1.3.8.6.4.3a1,1,0,0,0,.5.4,5.9,5.9,0,0,0,6-10.2Z"/>
    <path class="cls-5" d="M161.1,101a6,6,0,0,1,12,0"/>
    <path class="cls-3" d="M131.1,93.5c-.2,1-.4,2-.7,3h.3a4.5,4.5,0,0,1,4.5,4.5,1.5,1.5,0,0,0,3,0A7.6,7.6,0,0,0,131.1,93.5Z"/>
  </g>
</svg>
