<svg id="Layer_1" data-name="Layer 1" xmlns="http://www.w3.org/2000/svg" viewBox="0 0 300 300">
  <defs>
    <style>
      .cls-1 {
        fill: #a79b8d;
      }

      .cls-2 {
        fill: #d3c5b4;
      }

      .cls-3 {
        fill: #c8baaa;
      }

      .cls-4 {
        fill: #2a2a2a;
      }

      .cls-5 {
        fill: none;
        stroke: #2a2a2a;
        stroke-linecap: round;
        stroke-miterlimit: 10;
        stroke-width: 2px;
      }
    </style>
  </defs>
  <title>tan2Artboard 2</title>
  <g>
    <g>
      <path class="cls-1" d="M197.8,187.5S191.5,224.6,186,229s15.9,4.9,17.2,0,14.1-39,14.1-39Z"/>
      <path class="cls-1" d="M249.3,99.8c-1.7-2.7-15.3,13.1-16.5,14.6a46.2,46.2,0,0,1-6.4,6.1c-1.2.9-4,2.5-3.7,4.4.8,5.5-2.1,15.5,3.5,16.2s19.4-8.9,22.3-14,5.1-10.7,4.4-16.5A24.3,24.3,0,0,0,249.3,99.8Z"/>
      <path class="cls-2" d="M240.4,145.7c-.3-7.1-.9-15.2-5.1-21.2-8.7-12.2-25.8-10.4-38.7-12.4-7.3-1.1-14.4-3-21.5-4.3s-12.6-1.4-17.3-5.5c-1.5-1.4-2.3-3.5-4.2-4.4s-5.9-.2-8.4,0a90,90,0,0,0-10.4,1.6c-8.4,1.9-16.6,5.3-24.4,8.8a118.2,118.2,0,0,0-22.2,12.5c-4.6,3.3-9.8,7.2-11.7,12.8A5.8,5.8,0,0,0,76,135c-1.4,10.2-.4,20.6,1.5,30.7s9.7,22.3,10.1,33.7c.2,7.1-2.2,13.6-3.6,20.5-.9,4.3-1.8,10.7,1.4,14.5s12,1.1,14-2.7c5.6-10.2,7.8-17.1,8.3-27.3.2-4,.5-9.2,2.9-12.6,3.6-5.3,8.8-1.1,11.5,2.7,5.1,7.3,5.8,17.8,3.6,26.2-.9,3.6-7.5,10.7-4.4,14.2s16,1.7,16.9-3.8c1.2-7.1,3.4-14,5.5-20.9s3.3-13,10.5-15.5,14.3-2.5,21.3-3.4c9.3-1.1,18.9-2.2,28.3-1.6s10.6,8.4,10.3,16.3-1.1,17.7-6.9,22.5,19.1,7.3,20.1.5,4.5-13.5,6.5-19.9c5.6-17.8,7.3-36.4,6.7-55C240.5,151.5,240.5,148.7,240.4,145.7Z"/>
      <path class="cls-3" d="M114.6,69.8c19.4,0,27.5-7.3,36.4,0,15.1,28.2-1.8,64.6-18.2,74.2s-41.3,11.2-56-7.3S65.6,71.8,70,67.9,95.2,69.8,114.6,69.8Z"/>
      <path class="cls-4" d="M95.7,132.7a33.6,33.6,0,0,0,11.5,2.5,50.7,50.7,0,0,1-.9-5.4,57.9,57.9,0,0,1,.2-8.3c-3.5-2.2-9.9-11.1-7-11.6,4.9-1.8,21.9-1.4,22.1,1.2s-8.8,9.4-12.8,10.7c0,1.9-.2,3.7-.2,5.6a29.2,29.2,0,0,0,.9,7.8,43.2,43.2,0,0,0,10-2c1.4-.5,2,1.8.6,2.2-9,2.9-16.2,3.1-25-.5C93.8,134.3,94.4,132.1,95.7,132.7Z"/>
      <path class="cls-1" d="M129.3,67.8c-3.8.5-5.2,3.5-3,6.7l21.8,32.3a11.3,11.3,0,0,0,10.8,4.5l8.6-1.7a7.4,7.4,0,0,0,5.8-8.3l-4.9-31.2a7.3,7.3,0,0,0-8.1-6.1Z"/>
      <path class="cls-1" d="M91,67.1c3.8.4,5.2,3.5,3.1,6.7L72.2,106.1a11.5,11.5,0,0,1-10.8,4.5l-8.5-1.7a7.5,7.5,0,0,1-5.9-8.3l4.9-31.3a7.3,7.3,0,0,1,8.1-6Z"/>
    </g>
    <path class="cls-5" d="M94.3,97.1a6.5,6.5,0,0,1-13,0"/>
    <path class="cls-5" d="M138.3,97.1a6.5,6.5,0,1,1-13,0"/>
  </g>
</svg>
