<svg id="Layer_1" data-name="Layer 1" xmlns="http://www.w3.org/2000/svg" viewBox="0 0 300 300">
  <defs>
    <style>
      .cls-1 {
        fill: #d3c5b4;
      }

      .cls-2 {
        fill: #aca092;
      }

      .cls-3 {
        fill: #659689;
      }

      .cls-4 {
        fill: #262324;
      }

      .cls-5 {
        fill: none;
        stroke: #2a2a2a;
        stroke-linecap: round;
        stroke-miterlimit: 10;
        stroke-width: 2px;
      }
    </style>
  </defs>
  <title>tan3Artboard 2</title>
  <g>
    <g>
      <path class="cls-1" d="M205.4,218.9c51.2,25.1,50.8-16.6,36-19.2.8,7.2,3.3,9.8-4.5,16.1S201.9,205.9,205.4,218.9Z"/>
      <path class="cls-2" d="M109.3,168.3s8.2,54,0,59.8,19.8,1.6,19.8,1.6l-3.9-44.9Z"/>
      <path class="cls-2" d="M155.4,172s8.3,54,0,59.8,19.8,1.6,19.8,1.6l-3.8-44.9Z"/>
      <path class="cls-1" d="M207.8,183c-11.4-10.3-25.2-18.2-36.6-28.5-19.9-18-31.4-41.3-41-64.9-3.7-9.3-9.6-8.4-19-7.3l-10.1.9c-5.3,14.5-19.9,25.4-36.9,26.3,7.2,4.7,15.6,6.4,24.5,7.2a43.4,43.4,0,0,0,7.2.3s-3.2,44.6,27.4,72.3c1.9,20.2,9.9,39.3-1.4,45.5s19.3,7.1,21.4,2.8.8-32.3.8-32.3,15.3,13.4,26.8,9.2c-5.7,7.3,1.2,17.5,1.2,17.5s.5,1.7-3.6,4.7,34.9,2.1,45.2-.2S228.3,201.6,207.8,183Z"/>
      <path class="cls-3" d="M132.8,125.8a114.5,114.5,0,0,0,12-8.8c3.5-2.8-4.5-10.4-6.5-8.3a22.8,22.8,0,0,0,1.6,3.2c-19.6,15.8-43.5,11.3-46,10.4s-4.2,5.9-.5,7.2S112.1,137.7,132.8,125.8Z"/>
    </g>
    <g>
      <path class="cls-2" d="M87.9,62.2s7.9,3.7.2,24S80.4,114.3,68.7,110s-9.9-22.4,1.8-35.8C70.5,74.2,78.9,58,87.9,62.2Z"/>
      <path class="cls-1" d="M97.6,59.9S77.7,63.3,76.1,86.3c0,0-28.8,1.8-26,15.1s16.8,24.9,41.2,22.2,37.8-12.4,39.1-38.6S109.2,59.5,97.6,59.9Z"/>
      <path class="cls-4" d="M61.6,97.8s-8.4-3.3-6.9,2.1,4.4,8.4,8.9,5.1S64.4,98.5,61.6,97.8Z"/>
      <path class="cls-2" d="M124.6,71.4s8.5-2.1,15.3,18.5,11.7,26.6,0,30.7-21.8-11.1-21.2-28.9C118.7,91.7,114.9,73.9,124.6,71.4Z"/>
    </g>
    <path class="cls-5" d="M88.4,84.3a4.8,4.8,0,0,1-5.8,3.8,4.9,4.9,0,0,1-4-5.7"/>
    <path class="cls-5" d="M110.1,90.9a5,5,0,0,1-9.8-1.9"/>
    <polyline class="cls-5" points="60.8 106.3 60.8 112.9 69 111.2"/>
    <path class="cls-5" d="M59.8,113.1s-4.8-5.3-4.6-5.3"/>
  </g>
</svg>
